<svg xmlns="http://www.w3.org/2000/svg" width="20" height="19" viewBox="0 0 20 19">
    <path d="M11 7a4.792 4.792 0 0 1 4.548 5 5.276 5.276 0 0 1-.327 1.83l2.656 2.92A11.842 11.842 0 0 0 21 12a10.83 10.83 0 0 0-10-7.5 9.739 9.739 0 0 0-3.62.7l1.96 2.16A4.069 4.069 0 0 1 11 7zM1.91 4.27l2.073 2.28.418.46A11.773 11.773 0 0 0 1 12a10.83 10.83 0 0 0 10 7.5 9.868 9.868 0 0 0 3.984-.84l.382.42L18.035 22l1.155-1.27L3.065 3zM6.939 9.8l1.41 1.55a3.088 3.088 0 0 0-.073.65A2.87 2.87 0 0 0 11 15a2.346 2.346 0 0 0 .591-.08l1.41 1.55A4.181 4.181 0 0 1 11 17a4.792 4.792 0 0 1-4.548-5 5.361 5.361 0 0 1 .487-2.2zm3.92-.78 2.865 3.15.018-.16a2.87 2.87 0 0 0-2.729-3z" transform="translate(-1 -3)" style="fill:#d8d8d8"/>
</svg>
