<svg width="20" height="20" viewBox="0 0 20 20" fill="none" xmlns="http://www.w3.org/2000/svg">
<g id="ic_back_small" clip-path="url(#clip0_1952_20310)">
<g id="Group">
<path id="Vector" fill-rule="evenodd" clip-rule="evenodd" d="M0.243989 10.5883C0.0877629 10.432 0 10.2201 0 9.99915C0 9.77818 0.0877629 9.56625 0.243989 9.40998L4.95816 4.69581C5.03503 4.61622 5.12698 4.55274 5.22865 4.50906C5.33032 4.46539 5.43967 4.4424 5.55032 4.44144C5.66097 4.44048 5.7707 4.46156 5.87312 4.50346C5.97553 4.54536 6.06857 4.60724 6.14682 4.68548C6.22506 4.76373 6.28694 4.85677 6.32884 4.95918C6.37074 5.0616 6.39183 5.17133 6.39086 5.28198C6.3899 5.39263 6.36691 5.50198 6.32324 5.60365C6.27957 5.70532 6.21608 5.79727 6.13649 5.87415L2.01149 9.99915L6.13649 14.1241C6.28829 14.2813 6.37228 14.4918 6.37038 14.7103C6.36848 14.9288 6.28084 15.1378 6.12634 15.2923C5.97183 15.4468 5.76282 15.5345 5.54432 15.5364C5.32583 15.5383 5.11532 15.4543 4.95816 15.3025L0.243989 10.5883Z" fill="#AAABAF"/>
</g>
</g>
<defs>
<clipPath id="clip0_1952_20310">
<rect width="20" height="20" fill="white"/>
</clipPath>
</defs>
</svg>
