<svg width="41" height="40" viewBox="0 0 41 40" fill="none" xmlns="http://www.w3.org/2000/svg">
<g id="btn_&#237;&#148;&#132;&#235;&#161;&#156;&#237;&#149;&#132; &#235;&#147;&#177;&#235;&#161;&#157;&#237;&#149;&#152;&#234;&#184;&#176;">
<circle id="Ellipse 463" cx="20.0156" cy="20" r="20" fill="#6053F3"/>
<g id="btn_&#237;&#145;&#184;&#235;&#147;&#156;&#235;&#160;&#140;&#236;&#166;&#136;" clip-path="url(#clip0_1013_95134)">
<g id="Group">
<path id="Vector" d="M23.7906 12.615L23.7847 12.6019L23.772 12.5742C23.551 12.0765 23.1583 11.6851 22.7484 11.422C22.3353 11.1568 21.8151 10.9641 21.2715 10.9641H18.7557C18.212 10.9641 17.6919 11.1568 17.2787 11.422C16.8688 11.6852 16.4762 12.0765 16.2552 12.5742L16.2425 12.6019L16.2366 12.615C16.21 12.6756 16.1238 12.7916 15.9601 12.8968C15.7975 13.0011 15.6469 13.0377 15.5635 13.0377H12.227C11.074 13.0377 10.0869 13.9584 10.0869 15.1465V25.141C10.0869 26.3291 11.074 27.2498 12.227 27.2498H27.804C28.957 27.2498 29.9441 26.3291 29.9441 25.141V15.1465C29.9441 13.9584 28.957 13.0377 27.804 13.0377H24.4636C24.3803 13.0377 24.2297 13.0011 24.0671 12.8968C23.9034 12.7916 23.8172 12.6756 23.7906 12.615Z" stroke="white" stroke-width="2" stroke-linecap="round" stroke-linejoin="round"/>
<path id="Vector_2" d="M23.5869 19.9999C23.5869 21.9737 21.9893 23.5713 20.0155 23.5713C18.0417 23.5713 16.4441 21.9737 16.4441 19.9999C16.4441 18.0261 18.0417 16.4285 20.0155 16.4285C21.9893 16.4285 23.5869 18.03 23.5869 19.9999Z" stroke="white" stroke-width="2" stroke-linecap="round" stroke-linejoin="round"/>
</g>
<path id="Vector_3" d="M25.3728 16.4285H26.2657" stroke="white" stroke-width="2" stroke-linecap="round" stroke-linejoin="round"/>
</g>
</g>
<defs>
<clipPath id="clip0_1013_95134">
<rect width="21.4286" height="21.4286" fill="white" transform="translate(9.30127 9.28564)"/>
</clipPath>
</defs>
</svg>
