<svg width="16" height="16" viewBox="0 0 16 16" fill="none" xmlns="http://www.w3.org/2000/svg">
<g id="Group">
<path id="Vector" fill-rule="evenodd" clip-rule="evenodd" d="M6.92116 0.446245C7.19124 0.176509 7.55261 0.017792 7.93396 0.00140753C8.31531 -0.0149769 8.68896 0.112161 8.98118 0.357739L9.07884 0.447008L10.5285 1.89592H12.5778C12.9627 1.89599 13.3333 2.04148 13.6154 2.30323C13.8975 2.56499 14.0703 2.92368 14.0992 3.30745L14.1038 3.4219V5.47128L15.5534 6.92096C15.8234 7.19109 15.9822 7.55262 15.9986 7.93416C16.015 8.3157 15.8877 8.68951 15.6419 8.98179L15.5527 9.07869L14.103 10.5284V12.5778C14.1031 12.9627 13.9577 13.3335 13.696 13.6158C13.4342 13.8981 13.0754 14.071 12.6915 14.0999L12.5778 14.1037H10.5293L9.0796 15.5534C8.80948 15.8234 8.44796 15.9822 8.06643 15.9986C7.6849 16.015 7.31109 15.8877 7.01882 15.6419L6.92192 15.5534L5.47228 14.1037H3.42217C3.03719 14.1039 2.6664 13.9585 2.38411 13.6967C2.10183 13.4349 1.92892 13.0761 1.90004 12.6922L1.89623 12.5778V10.5284L0.446584 9.07869C0.17664 8.80856 0.0177921 8.44703 0.00140646 8.06549C-0.0149792 7.68395 0.112289 7.31014 0.358079 7.01786L0.446584 6.92096L1.89623 5.47128V3.4219C1.8963 3.03704 2.04178 2.66643 2.30353 2.3843C2.56528 2.10217 2.92396 1.92936 3.30773 1.9005L3.42217 1.89592H5.47151L6.92116 0.446245ZM10.3492 5.69789L7.11114 8.93601L5.76221 7.58705C5.61904 7.44398 5.42491 7.36365 5.22252 7.36372C5.02012 7.36379 4.82605 7.44426 4.68298 7.58743C4.53992 7.7306 4.45959 7.92474 4.45966 8.12713C4.45973 8.32953 4.5402 8.52361 4.68336 8.66668L6.51755 10.5009C6.59549 10.5789 6.68802 10.6407 6.78987 10.6829C6.89172 10.7251 7.00089 10.7469 7.11114 10.7469C7.22139 10.7469 7.33055 10.7251 7.4324 10.6829C7.53425 10.6407 7.62679 10.5789 7.70473 10.5009L11.428 6.77676C11.567 6.63285 11.6439 6.44012 11.6422 6.24007C11.6404 6.04002 11.5602 5.84865 11.4187 5.70718C11.2773 5.56572 11.0859 5.48548 10.8859 5.48374C10.6858 5.482 10.4931 5.55891 10.3492 5.69789Z" fill="#FFAE35"/>
</g>
</svg>
