<svg width="76" height="76" viewBox="0 0 76 76" fill="none" xmlns="http://www.w3.org/2000/svg">
<g id="&#236;&#151;&#180;&#235;&#158;&#140;&#235;&#182;&#136;&#234;&#176;&#128;" filter="url(#filter0_d_1699_186581)">
<circle id="Ellipse 403" cx="38" cy="34" r="32" fill="white"/>
<circle id="Ellipse 402" cx="38" cy="34" r="24" fill="#8F96A1"/>
<g id="ic/lock" clip-path="url(#clip0_1699_186581)">
<path id="Vector" d="M42.5 31.8333H42V30C42 27.794 40.206 26 38 26C35.794 26 34 27.794 34 30V31.8333H33.5C32.6733 31.8333 32 32.506 32 33.3333V40.5C32 41.3273 32.6733 42 33.5 42H42.5C43.3267 42 44 41.3273 44 40.5V33.3333C44 32.506 43.3267 31.8333 42.5 31.8333ZM35.3333 30C35.3333 28.5293 36.5293 27.3333 38 27.3333C39.4707 27.3333 40.6667 28.5293 40.6667 30V31.8333H35.3333V30ZM38.6667 37.0147L39 39.0333H37L37.3333 37.0147C36.9367 36.7833 36.6667 36.358 36.6667 35.8667C36.6667 35.1313 37.2647 34.5333 38 34.5333C38.7353 34.5333 39.3333 35.1313 39.3333 35.8667C39.3333 36.358 39.0633 36.7833 38.6667 37.0147Z" fill="white"/>
</g>
</g>
<defs>
<filter id="filter0_d_1699_186581" x="0" y="0" width="76" height="76" filterUnits="userSpaceOnUse" color-interpolation-filters="sRGB">
<feFlood flood-opacity="0" result="BackgroundImageFix"/>
<feColorMatrix in="SourceAlpha" type="matrix" values="0 0 0 0 0 0 0 0 0 0 0 0 0 0 0 0 0 0 127 0" result="hardAlpha"/>
<feOffset dy="4"/>
<feGaussianBlur stdDeviation="3"/>
<feComposite in2="hardAlpha" operator="out"/>
<feColorMatrix type="matrix" values="0 0 0 0 0 0 0 0 0 0 0 0 0 0 0 0 0 0 0.05 0"/>
<feBlend mode="normal" in2="BackgroundImageFix" result="effect1_dropShadow_1699_186581"/>
<feBlend mode="normal" in="SourceGraphic" in2="effect1_dropShadow_1699_186581" result="shape"/>
</filter>
<clipPath id="clip0_1699_186581">
<rect width="16" height="16" fill="white" transform="translate(30 26)"/>
</clipPath>
</defs>
</svg>
