<svg width="24" height="24" viewBox="0 0 24 24" fill="none" xmlns="http://www.w3.org/2000/svg">
<g id="Frame">
<rect width="24" height="24" fill="white"/>
<rect id="Rectangle 2385" x="1" y="2" width="18" height="18" rx="2.3" fill="#7CD693"/>
<path id="Vector 156" d="M4 6H11.3333M4 9H15M4 12H7" stroke="white" stroke-width="1.3" stroke-linecap="round"/>
<rect id="Rectangle 2388" x="11.35" y="11.35" width="11.3" height="11.3" rx="2.45" fill="#7CD693" stroke="white" stroke-width="1.3"/>
<path id="Vector" d="M15.3214 17.8729L16.453 19.2083L18.1235 17.1023C18.2313 16.965 18.4469 16.965 18.5546 17.1076L20.4461 19.5777C20.4761 19.617 20.4944 19.6636 20.4989 19.7124C20.5034 19.7612 20.4939 19.8103 20.4716 19.8541C20.4492 19.898 20.4148 19.9348 20.3722 19.9606C20.3296 19.9864 20.2806 20 20.2306 20H13.7694C13.5431 20 13.4191 19.7466 13.5592 19.5725L14.901 17.8834C15.0034 17.7462 15.2082 17.7409 15.3214 17.8729Z" fill="white"/>
</g>
</svg>
