<svg width="24" height="25" viewBox="0 0 24 25" fill="none" xmlns="http://www.w3.org/2000/svg">
<path d="M12 14.4968C11.7167 14.4968 11.479 14.4008 11.287 14.2088C11.095 14.0168 10.9993 13.7795 11 13.4968C11 13.2135 11.096 12.9758 11.288 12.7838C11.48 12.5918 11.7173 12.4962 12 12.4968C12.2833 12.4968 12.521 12.5928 12.713 12.7848C12.905 12.9768 13.0007 13.2142 13 13.4968C13 13.7802 12.904 14.0178 12.712 14.2098C12.52 14.4018 12.2827 14.4975 12 14.4968ZM8 14.4968C7.71667 14.4968 7.479 14.4008 7.287 14.2088C7.095 14.0168 6.99934 13.7795 7 13.4968C7 13.2135 7.096 12.9758 7.288 12.7838C7.48 12.5918 7.71734 12.4962 8 12.4968C8.28334 12.4968 8.521 12.5928 8.713 12.7848C8.905 12.9768 9.00067 13.2142 9 13.4968C9 13.7802 8.904 14.0178 8.712 14.2098C8.52 14.4018 8.28267 14.4975 8 14.4968ZM16 14.4968C15.7167 14.4968 15.479 14.4008 15.287 14.2088C15.095 14.0168 14.9993 13.7795 15 13.4968C15 13.2135 15.096 12.9758 15.288 12.7838C15.48 12.5918 15.7173 12.4962 16 12.4968C16.2833 12.4968 16.521 12.5928 16.713 12.7848C16.905 12.9768 17.0007 13.2142 17 13.4968C17 13.7802 16.904 14.0178 16.712 14.2098C16.52 14.4018 16.2827 14.4975 16 14.4968ZM12 18.4968C11.7167 18.4968 11.479 18.4008 11.287 18.2088C11.095 18.0168 10.9993 17.7795 11 17.4968C11 17.2135 11.096 16.9758 11.288 16.7838C11.48 16.5918 11.7173 16.4962 12 16.4968C12.2833 16.4968 12.521 16.5928 12.713 16.7848C12.905 16.9768 13.0007 17.2142 13 17.4968C13 17.7802 12.904 18.0178 12.712 18.2098C12.52 18.4018 12.2827 18.4975 12 18.4968ZM8 18.4968C7.71667 18.4968 7.479 18.4008 7.287 18.2088C7.095 18.0168 6.99934 17.7795 7 17.4968C7 17.2135 7.096 16.9758 7.288 16.7838C7.48 16.5918 7.71734 16.4962 8 16.4968C8.28334 16.4968 8.521 16.5928 8.713 16.7848C8.905 16.9768 9.00067 17.2142 9 17.4968C9 17.7802 8.904 18.0178 8.712 18.2098C8.52 18.4018 8.28267 18.4975 8 18.4968ZM16 18.4968C15.7167 18.4968 15.479 18.4008 15.287 18.2088C15.095 18.0168 14.9993 17.7795 15 17.4968C15 17.2135 15.096 16.9758 15.288 16.7838C15.48 16.5918 15.7173 16.4962 16 16.4968C16.2833 16.4968 16.521 16.5928 16.713 16.7848C16.905 16.9768 17.0007 17.2142 17 17.4968C17 17.7802 16.904 18.0178 16.712 18.2098C16.52 18.4018 16.2827 18.4975 16 18.4968ZM5 22.4968C4.45 22.4968 3.979 22.3008 3.587 21.9088C3.195 21.5168 2.99934 21.0462 3 20.4968V6.49683C3 5.94683 3.196 5.47583 3.588 5.08383C3.98 4.69183 4.45067 4.49616 5 4.49683H6V2.49683H8V4.49683H16V2.49683H18V4.49683H19C19.55 4.49683 20.021 4.69283 20.413 5.08483C20.805 5.47683 21.0007 5.94749 21 6.49683V20.4968C21 21.0468 20.804 21.5178 20.412 21.9098C20.02 22.3018 19.5493 22.4975 19 22.4968H5ZM5 20.4968H19V10.4968H5V20.4968Z" fill="#B5B6B7"/>
</svg>
