<svg width="16" height="16" viewBox="0 0 16 16" fill="none" xmlns="http://www.w3.org/2000/svg">
<g id="ic/delete3" opacity="0.8">
<rect x="16" y="16" width="16" height="16" rx="8" transform="rotate(180 16 16)" fill="#AAABAF"/>
<path id="Union" fill-rule="evenodd" clip-rule="evenodd" d="M10.3121 11.0192C10.5074 11.2145 10.824 11.2145 11.0192 11.0192C11.2145 10.824 11.2145 10.5074 11.0192 10.3121L8.7066 7.99949L11.0192 5.68687C11.2145 5.4916 11.2145 5.17502 11.0192 4.97976C10.824 4.7845 10.5074 4.7845 10.3121 4.97976L7.99949 7.29238L5.68687 4.97976C5.49161 4.7845 5.17502 4.7845 4.97976 4.97976C4.7845 5.17502 4.7845 5.4916 4.97976 5.68687L7.29238 7.99949L4.97976 10.3121C4.7845 10.5074 4.7845 10.824 4.97976 11.0192C5.17502 11.2145 5.4916 11.2145 5.68687 11.0192L7.99949 8.7066L10.3121 11.0192Z" fill="white"/>
</g>
</svg>
