<svg width="16" height="11" viewBox="0 0 16 11" fill="none" xmlns="http://www.w3.org/2000/svg">
<g id="Group 36979">
<path id="Vector" d="M8.22091 0.834717C7.16513 0.834717 6.15868 1.08504 5.24072 1.46686L6.20432 2.43046C6.77359 2.02626 7.46949 1.7886 8.22091 1.7886C10.1468 1.7886 11.7081 3.34989 11.7081 5.27577C11.7081 6.02718 11.4704 6.72308 11.0662 7.29235L12.2909 8.51703C14.5161 7.23522 16.0001 5.3731 16.0001 5.27577C16.0001 5.15649 12.5174 0.834864 8.22106 0.834864L8.22091 0.834717Z" fill="#8F96A1"/>
<path id="Vector_2" d="M11.849 8.72307L10.6244 7.49839L9.5191 6.39314L6.86758 3.74161L5.76232 2.63636L4.79872 1.67276L3.12582 0L2.29282 0.832991L3.68109 2.22126C1.47147 3.47023 0 5.28818 0 5.48181C0 5.80973 3.48275 9.92271 7.77905 9.92271C8.82703 9.92271 9.82656 9.66723 10.7389 9.27894L12.4236 10.9636L13.2566 10.1306L11.8489 8.72292L11.849 8.72307ZM7.77905 8.96898C5.85317 8.96898 4.29189 7.40769 4.29189 5.48181C4.29189 4.7326 4.52822 4.03862 4.93021 3.47023L6.03591 4.57593C5.89485 4.84702 5.81489 5.15492 5.81489 5.48166C5.81489 6.5663 6.69426 7.44568 7.77891 7.44568C8.10565 7.44568 8.4137 7.36587 8.68464 7.22466L9.79034 8.33035C9.22195 8.73249 8.52796 8.96868 7.77876 8.96868L7.77905 8.96898Z" fill="#8F96A1"/>
</g>
</svg>
