<svg width="16" height="10" viewBox="0 0 16 10" fill="none" xmlns="http://www.w3.org/2000/svg">
<g id="Group 36980">
<path id="Subtract" fill-rule="evenodd" clip-rule="evenodd" d="M15.9989 5.47826C14.4408 3.26177 12.4174 0.956522 7.99945 0.956522C3.58147 0.956522 1.10658 3.42611 0 5.47826C0.719275 7.48001 3.58147 10 7.99945 10C12.4174 10 14.7728 7.58957 15.9989 5.47826ZM11.5859 5.4783C11.5859 3.51714 9.98023 1.92731 7.9995 1.92731C6.01878 1.92731 4.41309 3.51714 4.41309 5.4783C4.41309 7.43946 6.01878 9.0293 7.9995 9.0293C9.98023 9.0293 11.5859 7.43946 11.5859 5.4783Z" fill="#8F96A1"/>
<path id="Vector" d="M7.99948 3.47867C9.11483 3.47867 10.019 4.3739 10.019 5.47823C10.019 6.58255 9.11483 7.47778 7.99948 7.47778C6.88414 7.47778 5.97998 6.58255 5.97998 5.47823C5.97998 4.3739 6.88414 3.47867 7.99948 3.47867Z" fill="#8F96A1"/>
</g>
</svg>
