<svg width="328" height="240" viewBox="0 0 328 240" fill="none" xmlns="http://www.w3.org/2000/svg">
<rect width="328" height="240" rx="16" fill="#F5F4FD"/>
<g opacity="0.5">
<path d="M156.817 82.751C156.817 90.3468 152.272 96.502 146.68 96.502C141.087 96.502 136.533 90.3367 136.533 82.751C136.533 75.1653 141.078 69 146.67 69C152.263 69 156.807 75.1552 156.807 82.751H156.817Z" fill="#8B8FE5"/>
<path d="M161.802 84.403V73.0295C161.802 71.7199 162.831 70.6621 164.104 70.6621C165.377 70.6621 166.406 71.7199 166.406 73.0295V84.403C166.406 87.939 169.187 90.8 172.625 90.8C176.063 90.8 178.844 87.9289 178.844 84.403V73.0295C178.844 71.7199 179.872 70.6621 181.146 70.6621C182.419 70.6621 183.447 71.7199 183.447 73.0295V84.403C183.447 90.5582 178.599 95.5448 172.615 95.5448C166.631 95.5448 161.783 90.5582 161.783 84.403H161.802Z" fill="#8B8FE5"/>
<path d="M170.098 130.632V73.7443C170.098 72.4347 171.126 71.377 172.399 71.377C173.673 71.377 174.701 72.4347 174.701 73.7443V130.632C174.701 131.942 173.673 132.999 172.399 132.999C171.126 132.999 170.098 131.942 170.098 130.632Z" fill="#8B8FE5"/>
<path d="M144.369 130.632V73.7443C144.369 72.4347 145.397 71.377 146.67 71.377C147.944 71.377 148.972 72.4347 148.972 73.7443V130.632C148.972 131.942 147.944 132.999 146.67 132.999C145.397 132.999 144.369 131.942 144.369 130.632Z" fill="#8B8FE5"/>
</g>
<path d="M106.306 158.152L104.062 171H102.082L104.788 155.6H107.56L112.07 168.536L114.358 155.6H116.338L113.632 171H110.904L106.306 158.152ZM123.623 171.264C122.244 171.264 121.078 170.963 120.125 170.362C119.172 169.761 118.446 168.954 117.947 167.942C117.448 166.915 117.199 165.771 117.199 164.51C117.199 163.337 117.382 162.207 117.749 161.122C118.116 160.022 118.651 159.039 119.355 158.174C120.074 157.294 120.946 156.605 121.973 156.106C123 155.593 124.173 155.336 125.493 155.336C126.872 155.336 128.038 155.637 128.991 156.238C129.944 156.839 130.67 157.653 131.169 158.68C131.668 159.692 131.917 160.829 131.917 162.09C131.917 163.263 131.734 164.4 131.367 165.5C131 166.585 130.458 167.568 129.739 168.448C129.035 169.313 128.17 170.003 127.143 170.516C126.116 171.015 124.943 171.264 123.623 171.264ZM125.317 157.14C124.378 157.14 123.535 157.338 122.787 157.734C122.054 158.13 121.43 158.673 120.917 159.362C120.404 160.051 120.008 160.829 119.729 161.694C119.465 162.559 119.333 163.454 119.333 164.378C119.333 165.317 119.502 166.175 119.839 166.952C120.176 167.715 120.675 168.323 121.335 168.778C122.01 169.233 122.831 169.46 123.799 169.46C124.738 169.46 125.574 169.262 126.307 168.866C127.055 168.47 127.686 167.927 128.199 167.238C128.712 166.549 129.101 165.771 129.365 164.906C129.644 164.041 129.783 163.146 129.783 162.222C129.783 161.283 129.614 160.433 129.277 159.67C128.94 158.893 128.441 158.277 127.781 157.822C127.121 157.367 126.3 157.14 125.317 157.14ZM141.709 155.82C142.266 155.703 142.86 155.607 143.491 155.534C144.136 155.461 144.848 155.424 145.625 155.424C146.813 155.424 147.803 155.637 148.595 156.062C149.387 156.473 149.974 157.023 150.355 157.712C150.751 158.387 150.949 159.113 150.949 159.89C150.949 161.093 150.656 162.105 150.069 162.926C149.482 163.733 148.676 164.349 147.649 164.774C146.622 165.185 145.456 165.39 144.151 165.39C143.799 165.39 143.447 165.375 143.095 165.346C142.758 165.302 142.442 165.243 142.149 165.17L141.137 171H139.047L141.709 155.82ZM145.405 157.162C145.009 157.162 144.657 157.177 144.349 157.206C144.056 157.235 143.784 157.272 143.535 157.316L142.457 163.41C142.75 163.498 143.066 163.564 143.403 163.608C143.755 163.637 144.1 163.652 144.437 163.652C146.006 163.652 147.143 163.322 147.847 162.662C148.551 162.002 148.903 161.159 148.903 160.132C148.903 159.267 148.595 158.555 147.979 157.998C147.378 157.441 146.52 157.162 145.405 157.162ZM150.917 171L153.623 155.6H155.713L153.007 171H150.917ZM164.48 157.162C163.409 157.162 162.441 157.485 161.576 158.13C160.71 158.761 160.021 159.633 159.508 160.748C158.994 161.848 158.738 163.117 158.738 164.554C158.738 166.138 159.126 167.348 159.904 168.184C160.681 169.02 161.671 169.438 162.874 169.438C163.563 169.438 164.172 169.343 164.7 169.152C165.242 168.961 165.77 168.734 166.284 168.47L166.636 170.362C166.093 170.611 165.492 170.824 164.832 171C164.172 171.176 163.424 171.264 162.588 171.264C161.385 171.264 160.329 171.007 159.42 170.494C158.525 169.981 157.828 169.24 157.33 168.272C156.831 167.289 156.582 166.101 156.582 164.708C156.582 163.388 156.772 162.163 157.154 161.034C157.55 159.89 158.107 158.893 158.826 158.042C159.544 157.191 160.395 156.531 161.378 156.062C162.375 155.578 163.468 155.336 164.656 155.336C165.521 155.336 166.284 155.453 166.944 155.688C167.604 155.923 168.154 156.165 168.594 156.414L167.648 158.13C167.208 157.851 166.738 157.624 166.24 157.448C165.756 157.257 165.169 157.162 164.48 157.162ZM169.442 155.6H180.992L180.662 157.448H175.932L173.556 171H171.466L173.842 157.448H169.112L169.442 155.6ZM192.03 171.11C191.223 171.11 190.607 170.919 190.182 170.538C189.756 170.142 189.544 169.533 189.544 168.712V168.228C188.957 169.152 188.26 169.893 187.454 170.45C186.662 170.993 185.723 171.264 184.638 171.264C183.89 171.264 183.2 171.103 182.57 170.78C181.954 170.457 181.455 169.981 181.074 169.35C180.707 168.705 180.524 167.927 180.524 167.018C180.524 166.681 180.538 166.373 180.568 166.094C180.597 165.801 180.641 165.478 180.7 165.126L182.328 155.6H184.418L182.724 165.588C182.68 165.852 182.65 166.079 182.636 166.27C182.621 166.446 182.614 166.644 182.614 166.864C182.614 167.656 182.848 168.287 183.318 168.756C183.787 169.211 184.425 169.438 185.232 169.438C185.906 169.438 186.574 169.233 187.234 168.822C187.908 168.411 188.495 167.81 188.994 167.018C189.507 166.226 189.859 165.265 190.05 164.136L191.568 155.6H193.658L191.502 167.788C191.487 167.861 191.472 167.949 191.458 168.052C191.458 168.14 191.458 168.235 191.458 168.338C191.458 168.734 191.568 169.02 191.788 169.196C192.022 169.372 192.345 169.46 192.756 169.46L192.03 171.11ZM197.302 155.82C197.962 155.703 198.578 155.607 199.15 155.534C199.737 155.461 200.419 155.424 201.196 155.424C202.311 155.424 203.25 155.6 204.012 155.952C204.775 156.304 205.354 156.781 205.75 157.382C206.146 157.969 206.344 158.621 206.344 159.34C206.344 160.675 205.919 161.679 205.068 162.354C204.218 163.029 203.096 163.469 201.702 163.674C202.304 163.938 202.773 164.268 203.11 164.664C203.448 165.045 203.712 165.449 203.902 165.874C204.093 166.299 204.247 166.717 204.364 167.128C204.496 167.539 204.636 167.913 204.782 168.25C204.929 168.587 205.134 168.859 205.398 169.064C205.677 169.255 206.058 169.35 206.542 169.35L205.772 171.154C205.127 171.154 204.606 171.029 204.21 170.78C203.814 170.531 203.492 170.208 203.242 169.812C203.008 169.401 202.795 168.954 202.604 168.47C202.428 167.971 202.238 167.48 202.032 166.996C201.827 166.497 201.563 166.05 201.24 165.654C200.918 165.243 200.485 164.913 199.942 164.664C199.414 164.415 198.732 164.29 197.896 164.29L196.708 171H194.618L197.302 155.82ZM201.064 157.162C200.683 157.162 200.331 157.177 200.008 157.206C199.7 157.235 199.407 157.279 199.128 157.338L198.204 162.53H200.03C201.321 162.53 202.348 162.266 203.11 161.738C203.888 161.21 204.276 160.499 204.276 159.604C204.276 158.885 203.99 158.299 203.418 157.844C202.861 157.389 202.076 157.162 201.064 157.162ZM210.548 155.6H219.678L219.37 157.404H212.308L211.494 162.09H217.544L217.236 163.85H211.186L210.24 169.196H217.28L216.972 171H207.842L210.548 155.6Z" fill="#8B8FE5"/>
</svg>
