<svg width="139" height="18" viewBox="0 0 139 18" fill="none" xmlns="http://www.w3.org/2000/svg">
<g id="logo" clip-path="url(#clip0_2215_10270)">
<g id="Group">
<path id="Vector" d="M80.2745 4.93923V12.9126L86.2021 12.4257C86.3261 12.4186 86.4293 12.5174 86.4293 12.6374V13.7805C86.4293 14.3732 85.9818 14.8671 85.4035 14.9165C82.8218 15.1352 80.3365 15.3681 77.7272 15.5868C77.6033 15.5939 77.5 15.4951 77.5 15.3751V2.73068C77.5 2.61073 77.5964 2.519 77.7065 2.519H85.5274C85.6445 2.519 85.7409 2.61778 85.7409 2.73774V3.8032C85.7409 4.43119 85.2452 4.93923 84.6324 4.93923H80.2676H80.2745ZM87.5859 2.00391H89.9336C90.0506 2.00391 90.1401 2.10269 90.1401 2.21559V7.19716H92.0196C92.1367 7.19716 92.2262 7.29595 92.2262 7.40885V8.53076C92.2262 9.15875 91.7305 9.66678 91.1177 9.66678H90.1401V16.8357H87.3725V2.22264C87.3725 2.10269 87.4689 2.01096 87.579 2.01096L87.5859 2.00391Z" fill="#B6C2D5"/>
<path id="Vector_2" d="M93.3896 11.833V6.15992C93.3896 3.70442 94.8148 2.20853 97.7683 2.20853C100.722 2.20853 102.112 3.69736 102.112 6.15992V11.833C102.112 14.2603 100.687 15.7773 97.7683 15.7773C94.8492 15.7773 93.3896 14.2532 93.3896 11.833ZM99.4206 6.74558C99.4206 5.57427 99.1865 4.58642 97.7683 4.58642C96.35 4.58642 96.116 5.56721 96.116 6.74558V11.2332C96.116 12.4822 96.3638 13.4065 97.7683 13.4065C98.8836 13.4065 99.4206 12.7573 99.4206 11.7413V6.74558ZM104.13 2.00391H106.491C106.608 2.00391 106.698 2.10269 106.698 2.21559V16.8428H103.916V2.22264C103.916 2.10269 104.013 2.01096 104.123 2.01096L104.13 2.00391Z" fill="#B6C2D5"/>
<path id="Vector_3" d="M109.169 11.8328V6.1597C109.169 3.66892 110.56 2.20831 113.472 2.20831C116.384 2.20831 117.754 3.78181 117.754 6.45606V7.204H119.702V2.22242C119.702 2.10247 119.799 2.01074 119.909 2.01074H122.27C122.387 2.01074 122.477 2.10953 122.477 2.22242V16.8496H119.696V9.71596H117.747V11.3177C117.747 14.126 116.632 15.7912 113.465 15.7912C110.573 15.7912 109.162 14.2671 109.162 11.8469L109.169 11.8328ZM115.062 6.74536C115.062 5.57405 114.814 4.5862 113.472 4.5862C112.129 4.5862 111.895 5.56699 111.895 6.74536V11.233C111.895 12.4537 112.157 13.4063 113.472 13.4063C114.539 13.4063 115.062 12.7571 115.062 11.741V6.74536Z" fill="#B6C2D5"/>
<path id="Vector_4" d="M124.667 13.9289H138.787C138.904 13.9289 138.993 14.0277 138.993 14.1406V15.1637C138.993 15.7917 138.498 16.2997 137.885 16.2997H124.667C124.549 16.2997 124.46 16.201 124.46 16.0881V14.1406C124.46 14.0206 124.556 13.9289 124.667 13.9289ZM135.999 8.23468H128.336V9.69528H137.761C137.878 9.69528 137.968 9.79406 137.968 9.90696V10.8666C137.968 11.4946 137.472 12.0026 136.859 12.0026H125.713C125.596 12.0026 125.506 11.9038 125.506 11.7909V2.58278C125.506 2.46282 125.603 2.37109 125.713 2.37109H137.486C137.603 2.37109 137.692 2.46988 137.692 2.58278V3.49301C137.692 4.121 137.196 4.62903 136.584 4.62903H128.336V6.06847H136.9C137.017 6.06847 137.107 6.16725 137.107 6.28015V7.08454C137.107 7.71253 136.611 8.22056 135.999 8.22056V8.23468Z" fill="#B6C2D5"/>
</g>
<g id="Group_2">
<path id="Vector_5" d="M40.4606 15.8271V16.3069C40.4606 16.702 40.1439 17.0266 39.7583 17.0266H27.4211C27.0356 17.0266 26.7189 16.702 26.7189 16.3069V13.7243C26.7189 13.3292 27.0356 13.0046 27.4211 13.0046H37.8926V12.4684H27.3867C27.0012 12.4684 26.6845 12.1438 26.6845 11.7487V11.2688C26.6845 10.8737 27.0012 10.5491 27.3867 10.5491H28.0063V9.83646H26.2232C25.8377 9.83646 25.521 9.51188 25.521 9.11674V8.50287C25.521 8.10773 25.8377 7.78315 26.2232 7.78315H30.0373C30.9529 7.78315 31.9306 7.69142 32.7361 7.51502C33.1767 7.41623 33.5829 7.76198 33.5829 8.22062V8.79216C33.5829 9.10969 33.3832 9.39898 33.0803 9.48366C32.4056 9.68123 31.0149 9.80118 30.1337 9.82235V10.5562H39.5862C39.9718 10.5562 40.2885 10.8808 40.2885 11.2759V13.8584C40.2885 14.2536 39.9718 14.5781 39.5862 14.5781H29.1767V15.1144H39.7583C40.1439 15.1144 40.4606 15.439 40.4606 15.8341V15.8271ZM25.6518 4.52325C25.6518 2.7804 27.132 1.74316 29.2869 1.74316C31.4418 1.74316 32.9013 2.77335 32.9013 4.52325C32.9013 6.27315 31.4211 7.30334 29.2869 7.30334C27.1526 7.30334 25.6518 6.25198 25.6518 4.52325ZM27.8755 4.52325C27.8755 5.00306 28.4676 5.41231 29.3006 5.41231C30.1337 5.41231 30.7051 5.00306 30.7051 4.52325C30.7051 4.04344 30.1337 3.63419 29.3006 3.63419C28.4676 3.63419 27.8755 4.04344 27.8755 4.52325ZM34.6775 5.84979H33.9822C33.5966 5.84979 33.2799 5.52521 33.2799 5.13007V4.25512C33.2799 3.85998 33.5966 3.5354 33.9822 3.5354H34.6775V2.61812C34.6775 2.22298 34.9942 1.8984 35.3797 1.8984H36.3298C36.7154 1.8984 37.032 2.22298 37.032 2.61812V9.9423H34.6775V5.85684V5.84979ZM40.2816 9.93525H37.8926V2.5405C37.8926 2.14536 38.2093 1.82078 38.5948 1.82078H39.5793C39.9649 1.82078 40.2816 2.14536 40.2816 2.5405V9.93525Z" fill="#AEB6C4"/>
<g id="Group_3">
<path id="Vector_6" d="M42.34 14.3665C44.5224 12.5602 44.846 9.74483 44.846 6.16035H43.1455C42.7599 6.16035 42.4433 5.83577 42.4433 5.44063V4.43162C42.4433 4.03648 42.7599 3.7119 43.1455 3.7119H44.846V2.4912C44.846 2.09606 45.1627 1.77148 45.5482 1.77148H46.4501C46.8356 1.77148 47.1523 2.09606 47.1523 2.4912V3.7119H48.839C49.2246 3.7119 49.5413 4.03648 49.5413 4.43162V5.44063C49.5413 5.83577 49.2246 6.16035 48.839 6.16035H47.1523C47.1523 11.3536 46.6016 14.0067 43.8064 16.2999C43.4897 16.561 43.0147 16.5045 42.7806 16.1658L42.2092 15.3544C41.9889 15.0439 42.044 14.6065 42.34 14.3665Z" fill="#AEB6C4"/>
<path id="Vector_7" d="M45.4795 12.5599L48.1783 16.3349L50.0646 14.8813L46.4089 9.85742" fill="#AEB6C4"/>
<path id="Vector_8" d="M56.2814 1.82129H55.0972C54.7117 1.82129 54.395 2.14587 54.395 2.54101V17.0341H56.9836V2.54101C56.9836 2.14587 56.6669 1.82129 56.2814 1.82129Z" fill="#AEB6C4"/>
<path id="Vector_9" d="M52.6668 1.8916H51.5171C51.1316 1.8916 50.8149 2.21618 50.8149 2.61132V7.7693H49.5894C49.2039 7.7693 48.8872 8.09387 48.8872 8.48901V9.71677C48.8872 10.1119 49.2039 10.4365 49.5894 10.4365H50.8149V16.7587H53.3691V2.61132C53.3691 2.21618 53.0524 1.8916 52.6668 1.8916Z" fill="#AEB6C4"/>
</g>
<path id="Vector_10" d="M73.7681 14.7261V15.7775C73.7681 16.1726 73.4514 16.4972 73.0659 16.4972H59.6134C59.2278 16.4972 58.9111 16.1726 58.9111 15.7775V14.7261C58.9111 14.331 59.2278 14.0064 59.6134 14.0064H73.0659C73.4514 14.0064 73.7681 14.331 73.7681 14.7261ZM70.3258 10.2243H60.4257C60.0402 10.2243 59.7235 9.89977 59.7235 9.50463V8.38977C59.7235 7.99464 60.0402 7.67006 60.4257 7.67006H70.3258V4.67829H60.4257C60.0402 4.67829 59.7235 4.35371 59.7235 3.95857V2.90722C59.7235 2.51208 60.0402 2.1875 60.4257 2.1875H72.2466C72.6321 2.1875 72.9488 2.51208 72.9488 2.90722V12.7292H70.3258V10.2243Z" fill="#AEB6C4"/>
</g>
<g id="Group_4">
<path id="Vector_11" d="M18.1135 14.5357L12.9914 5.44043L10.2031 9.73757L14.21 16.843C14.8296 17.9508 16.2134 18.3248 17.2874 17.6897C18.3683 17.0547 18.7331 15.6364 18.1135 14.5357Z" fill="#A3ABB9"/>
<path id="Vector_12" d="M5.27914 16.8407C5.90271 17.9477 7.28244 18.3277 8.36084 17.6896C9.43925 17.0515 9.80797 15.6368 9.1844 14.5299L4.21028 5.69987C3.58671 4.59291 2.20698 4.21285 1.12858 4.85098C0.0501666 5.4891 -0.318554 6.90377 0.305017 8.01072L5.27914 16.8407Z" fill="#AEB6C4"/>
<path id="Vector_13" d="M2.25859 9.15861C3.50193 9.15861 4.50985 8.12558 4.50985 6.85128C4.50985 5.57697 3.50193 4.54395 2.25859 4.54395C1.01525 4.54395 0.00732422 5.57697 0.00732422 6.85128C0.00732422 8.12558 1.01525 9.15861 2.25859 9.15861Z" fill="#B6C2D5"/>
<g id="Group_5">
<path id="Vector_14" d="M5.79024 13.9852C8.19297 11.3321 9.21877 5.68024 8.99158 2.4274C8.88831 0.980905 9.7902 0.0565617 11.0707 0.00011322C12.2755 -0.0563352 13.3289 1.05147 13.4046 2.378C13.6593 6.78098 12.1103 14.2675 8.95027 17.2875C8.03462 18.1553 6.71278 18.2682 5.76959 17.4356C4.8264 16.603 4.86771 15.0507 5.79024 13.9923V13.9852Z" fill="#AEB6C4"/>
<path id="Vector_15" d="M14.6643 13.9852C17.067 11.3321 18.0928 5.68024 17.8656 2.4274C17.7623 0.980905 18.6642 0.0565617 19.9448 0.00011322C21.1496 -0.0563352 22.2029 1.05147 22.2786 2.378C22.5334 6.78098 20.9843 14.2675 17.8243 17.2875C16.9086 18.1553 15.5868 18.2682 14.6436 17.4356C13.7004 16.603 13.7417 15.0507 14.6643 13.9923V13.9852Z" fill="#AEB6C4"/>
</g>
</g>
</g>
<defs>
<clipPath id="clip0_2215_10270">
<rect width="139" height="18" fill="white"/>
</clipPath>
</defs>
</svg>
