<svg width="16" height="16" viewBox="0 0 16 16" fill="none" xmlns="http://www.w3.org/2000/svg">
<g id="ic_heart">
<path id="Vector" d="M8.02594 15H7.97427C7.87177 15 7.7701 14.9768 7.67676 14.932C4.11494 13.2305 2.09069 10.3426 1.38149 8.20064C1.30815 8.00364 0.838133 6.66338 1.05814 5.16053C1.05981 5.15021 1.06148 5.13989 1.06314 5.12957C1.42316 3.23359 2.89905 2.0086 4.82414 2.0086C6.13253 2.0086 7.29924 2.67873 7.99844 3.71963C8.6968 2.67357 9.86519 2 11.1761 2C13.102 2 14.5779 3.22155 14.9371 5.11236C14.9387 5.12268 14.9412 5.13301 14.9421 5.14333C15.1621 6.64962 14.6896 8.0088 14.6187 8.19977C13.9095 10.3418 11.8861 13.2305 8.32345 14.932C8.23012 14.9768 8.12844 15 8.02594 15Z" stroke="#BDC1C7" stroke-width="2" stroke-miterlimit="10"/>
</g>
</svg>
