<svg width="20" height="20" viewBox="0 0 20 20" fill="none" xmlns="http://www.w3.org/2000/svg">
<g id="ic/locker" clip-path="url(#clip0_2160_1715)">
<path id="Vector" d="M18.1407 1H2.14075C1.61031 1 1.10161 1.21071 0.726533 1.58579C0.351461 1.96086 0.140747 2.46957 0.140747 3V5C0.142854 5.34903 0.236265 5.69143 0.411696 5.99317C0.587128 6.29491 0.838471 6.54549 1.14075 6.72V17C1.14075 17.5304 1.35146 18.0391 1.72653 18.4142C2.10161 18.7893 2.61031 19 3.14075 19H17.1407C17.6712 19 18.1799 18.7893 18.555 18.4142C18.93 18.0391 19.1407 17.5304 19.1407 17V6.72C19.443 6.54549 19.6944 6.29491 19.8698 5.99317C20.0452 5.69143 20.1386 5.34903 20.1407 5V3C20.1407 2.46957 19.93 1.96086 19.555 1.58579C19.1799 1.21071 18.6712 1 18.1407 1ZM2.14075 3H18.1407V5H2.14075V3ZM3.14075 17V7H17.1407V17H3.14075Z" fill="#252525"/>
<path id="Vector_2" d="M6.14075 9H14.1407V11H6.14075V9Z" fill="#252525"/>
</g>
<defs>
<clipPath id="clip0_2160_1715">
<rect width="20" height="20" fill="white"/>
</clipPath>
</defs>
</svg>
