<svg width="20" height="20" viewBox="0 0 20 20" fill="none" xmlns="http://www.w3.org/2000/svg">
<g clip-path="url(#clip0_2160_3203)">
<path d="M14 3.07191C15.2066 3.7686 16.2104 4.76833 16.9119 5.97215C17.6134 7.17597 17.9883 8.54213 17.9995 9.93538C18.0108 11.3286 17.658 12.7007 16.976 13.9157C16.2941 15.1307 15.3066 16.1465 14.1114 16.8626C12.9162 17.5787 11.5547 17.9702 10.1617 17.9984C8.76866 18.0266 7.39244 17.6904 6.16924 17.0233C4.94605 16.3562 3.9183 15.3811 3.18773 14.1947C2.45717 13.0083 2.04913 11.6517 2.004 10.2591L2 9.99991L2.004 9.74071C2.0488 8.35911 2.45084 7.01268 3.17091 5.83271C3.89098 4.65273 4.90452 3.67948 6.11271 3.00782C7.3209 2.33616 8.68252 1.98903 10.0648 2.00026C11.4471 2.0115 12.8029 2.38071 14 3.07191ZM10 5.19991C9.80405 5.19994 9.61493 5.27188 9.4685 5.40209C9.32207 5.53229 9.22852 5.71171 9.2056 5.90631L9.2 5.99991V9.99991L9.2072 10.1047C9.22544 10.2435 9.27978 10.3751 9.3648 10.4863L9.4344 10.5663L11.8344 12.9663L11.9096 13.0319C12.0499 13.1408 12.2224 13.1998 12.4 13.1998C12.5776 13.1998 12.7501 13.1408 12.8904 13.0319L12.9656 12.9655L13.032 12.8903C13.1409 12.75 13.1999 12.5775 13.1999 12.3999C13.1999 12.2223 13.1409 12.0498 13.032 11.9095L12.9656 11.8343L10.8 9.66791V5.99991L10.7944 5.90631C10.7715 5.71171 10.6779 5.53229 10.5315 5.40209C10.3851 5.27188 10.1959 5.19994 10 5.19991Z" fill="#6B84FF"/>
</g>
<defs>
<clipPath id="clip0_2160_3203">
<rect width="20" height="20" fill="white"/>
</clipPath>
</defs>
</svg>
