<svg width="16" height="16" viewBox="0 0 16 16" fill="none" xmlns="http://www.w3.org/2000/svg">
<g id="Frame 36795">
<g id="Group 36716">
<path id="Exclude" fill-rule="evenodd" clip-rule="evenodd" d="M3 0C1.61929 0 0.5 1.11929 0.5 2.5V13.5C0.5 14.8807 1.61929 16 3 16H13C14.3807 16 15.5 14.8807 15.5 13.5V2.5C15.5 1.11929 14.3807 0 13 0H3ZM4.25 3C3.83579 3 3.5 3.33579 3.5 3.75C3.5 4.16421 3.83579 4.5 4.25 4.5H11.75C12.1642 4.5 12.5 4.16421 12.5 3.75C12.5 3.33579 12.1642 3 11.75 3H4.25ZM3.5 7.25C3.5 6.83579 3.83579 6.5 4.25 6.5H11.75C12.1642 6.5 12.5 6.83579 12.5 7.25C12.5 7.66421 12.1642 8 11.75 8H4.25C3.83579 8 3.5 7.66421 3.5 7.25ZM4.25 10C3.83579 10 3.5 10.3358 3.5 10.75C3.5 11.1642 3.83579 11.5 4.25 11.5H8.375C8.78921 11.5 9.125 11.1642 9.125 10.75C9.125 10.3358 8.78921 10 8.375 10H4.25Z" fill="#927DFA"/>
</g>
</g>
</svg>
