<svg width="24" height="24" viewBox="0 0 24 24" fill="none" xmlns="http://www.w3.org/2000/svg">
<g id="ic_notice_badge">
<path id="Vector" d="M4.65464 18.9924C4.22029 18.9924 3.78595 18.8498 3.47478 18.5451C2.96265 18.0395 2.86217 17.2778 3.1863 16.6716C3.1863 16.6684 3.19278 16.6619 3.19603 16.6587L4.88801 15.0866C4.88801 15.0866 4.90098 15.0672 4.90098 15.0574V9.95229C4.90098 5.89087 8.22013 2.32861 11.9996 2.32861C15.779 2.32861 19.0981 5.89087 19.0981 9.95229V15.0574C19.0981 15.0574 19.1014 15.0801 19.1111 15.0866L20.8031 16.6587C20.8031 16.6587 20.8096 16.6651 20.8128 16.6716C21.1369 17.2778 21.0397 18.0395 20.5243 18.5451C20.2164 18.8498 19.7788 18.9924 19.3445 18.9924H4.65464Z" stroke="black" stroke-width="2" stroke-linecap="round" stroke-linejoin="round"/>
<path id="Vector_2" d="M9 18.9922C9 20.7036 10.3873 22.0909 12.0987 22.0909C13.8102 22.0909 15.1975 20.7036 15.1975 18.9922" stroke="black" stroke-width="2" stroke-linecap="round" stroke-linejoin="round"/>
</g>
</svg>
