<svg width="16" height="17" viewBox="0 0 16 17" fill="none" xmlns="http://www.w3.org/2000/svg">
<g id="octicon:play-16" clip-path="url(#clip0_1952_19973)">
<path id="Vector" d="M8 0.5C10.1217 0.5 12.1566 1.34285 13.6569 2.84315C15.1571 4.34344 16 6.37827 16 8.5C16 10.6217 15.1571 12.6566 13.6569 14.1569C12.1566 15.6571 10.1217 16.5 8 16.5C5.87827 16.5 3.84344 15.6571 2.34315 14.1569C0.842855 12.6566 0 10.6217 0 8.5C0 6.37827 0.842855 4.34344 2.34315 2.84315C3.84344 1.34285 5.87827 0.5 8 0.5ZM1.5 8.5C1.5 10.2239 2.18482 11.8772 3.40381 13.0962C4.62279 14.3152 6.27609 15 8 15C9.72391 15 11.3772 14.3152 12.5962 13.0962C13.8152 11.8772 14.5 10.2239 14.5 8.5C14.5 6.77609 13.8152 5.12279 12.5962 3.90381C11.3772 2.68482 9.72391 2 8 2C6.27609 2 4.62279 2.68482 3.40381 3.90381C2.18482 5.12279 1.5 6.77609 1.5 8.5ZM6.379 5.727L10.643 8.286C10.6798 8.30825 10.7103 8.33965 10.7315 8.37714C10.7526 8.41463 10.7638 8.45695 10.7638 8.5C10.7638 8.54305 10.7526 8.58537 10.7315 8.62286C10.7103 8.66035 10.6798 8.69174 10.643 8.714L6.379 11.273C6.34108 11.2958 6.29778 11.3082 6.25352 11.3088C6.20926 11.3095 6.16563 11.2983 6.12708 11.2765C6.08854 11.2548 6.05646 11.2232 6.03413 11.185C6.0118 11.1467 6.00003 11.1033 6 11.059V5.942C5.99985 5.89765 6.0115 5.85406 6.03375 5.8157C6.05601 5.77733 6.08807 5.74558 6.12664 5.7237C6.16522 5.70181 6.20892 5.69059 6.25327 5.69117C6.29762 5.69175 6.34101 5.70411 6.379 5.727Z" fill="#717379"/>
</g>
<defs>
<clipPath id="clip0_1952_19973">
<rect width="16" height="16" fill="white" transform="translate(0 0.5)"/>
</clipPath>
</defs>
</svg>
