<svg width="20" height="20" viewBox="0 0 20 20" fill="none" xmlns="http://www.w3.org/2000/svg">
<g id="ic/exercise">
<path id="Vector" d="M15.499 9.2C15.269 8.9 14.989 8.64 14.729 8.38C14.059 7.78 13.299 7.35 12.659 6.72C11.169 5.26 10.839 2.85 11.789 1C10.839 1.23 10.009 1.75 9.29904 2.32C6.70904 4.4 5.68904 8.07 6.90904 11.22C6.94904 11.32 6.98904 11.42 6.98904 11.55C6.98904 11.77 6.83904 11.97 6.63904 12.05C6.40904 12.15 6.16904 12.09 5.97904 11.93C5.92194 11.8828 5.87442 11.8251 5.83904 11.76C4.70904 10.33 4.52904 8.28 5.28904 6.64C3.61904 8 2.70904 10.3 2.83904 12.47C2.89904 12.97 2.95904 13.47 3.12904 13.97C3.26904 14.57 3.53904 15.17 3.83904 15.7C4.91904 17.43 6.78904 18.67 8.79904 18.92C10.939 19.19 13.229 18.8 14.869 17.32C16.699 15.66 17.339 13 16.399 10.72L16.269 10.46C16.059 10 15.499 9.2 15.499 9.2ZM12.339 15.5C12.059 15.74 11.599 16 11.239 16.1C10.119 16.5 8.99904 15.94 8.33904 15.28C9.52904 15 10.239 14.12 10.449 13.23C10.619 12.43 10.299 11.77 10.169 11C10.049 10.26 10.069 9.63 10.339 8.94C10.529 9.32 10.729 9.7 10.969 10C11.739 11 12.949 11.44 13.209 12.8C13.249 12.94 13.269 13.08 13.269 13.23C13.299 14.05 12.939 14.95 12.339 15.5Z" fill="#6B84FF"/>
</g>
</svg>
