<svg width="20" height="20" viewBox="0 0 20 20" fill="none" xmlns="http://www.w3.org/2000/svg">
<g id="ic/good">
<path id="Vector" d="M1.36606 8.40002C1.07198 8.40002 0.833588 8.6603 0.833588 8.9813V17.5188C0.833588 17.8398 1.07202 18.1 1.36606 18.1H4.57418V8.40002H1.36606Z" fill="white"/>
<path id="Vector_2" d="M18.82 11.8488C18.82 11.1728 18.4568 10.5801 17.9153 10.2554C18.1228 9.95588 18.2445 9.59247 18.2445 9.20129C18.2445 8.17778 17.4117 7.34507 16.3882 7.34507H12.4698C12.5899 6.80085 12.7541 5.98421 12.8685 5.12931C13.1661 2.90459 12.9627 1.67078 12.2284 1.24648C11.7706 0.982002 11.277 0.928354 10.8385 1.09528C10.4998 1.2243 10.0424 1.54151 9.78168 2.32005L8.75181 5.01657C8.22971 6.30599 6.63083 7.65969 5.63925 8.4082V18.0297C7.47701 18.6736 9.39471 19 11.3512 19H15.6207C16.6442 19 17.477 18.1673 17.477 17.1438C17.477 16.7854 17.3748 16.4503 17.1982 16.1663C17.817 15.8649 18.2444 15.2295 18.2444 14.4963C18.2444 14.1051 18.1227 13.7417 17.9153 13.4421C18.4568 13.1175 18.82 12.5247 18.82 11.8488Z" fill="white"/>
</g>
</svg>
