<svg width="20" height="20" viewBox="0 0 20 20" fill="none" xmlns="http://www.w3.org/2000/svg">
<g clip-path="url(#clip0_1872_22646)">
<path d="M10 5C11.3801 5 12.4991 3.88055 12.4991 2.50005C12.499 1.11907 11.3801 0 10 0C8.61951 0 7.5 1.11907 7.5 2.5C7.49995 3.88055 8.61945 5 10 5Z" fill="#FFBA59"/>
<path d="M0.136108 6.68476C0.136108 6.68476 7.17266 5.73961 7.68432 5.65204C9.0237 5.42213 11.3019 5.47845 12.316 5.65204C12.8277 5.73961 19.8642 6.68476 19.8642 6.68476L19.7521 8.29724L13.81 8.30393L13.4247 11.8455L13.0293 19.989C12.7886 19.9903 10.7811 20.0131 10.7811 19.989L10.6236 12.5H9.37674L9.28396 19.989H7.03598L6.5756 11.8455L6.19 8.30393L0.248223 8.29724L0.136108 6.68476Z" fill="#FFBA59"/>
<path d="M8.5 4H11.5L11.2 4.4C10.9333 4.75556 10.9333 5.24444 11.2 5.6L11.5 6H8.5L8.8 5.6C9.06667 5.24444 9.06667 4.75556 8.8 4.4L8.5 4Z" fill="#FFBA59"/>
<rect x="6" y="19" width="3" height="1" fill="#FFBA59"/>
<rect x="11" y="19" width="3" height="1" fill="#FFBA59"/>
</g>
<defs>
<clipPath id="clip0_1872_22646">
<rect width="20" height="20" fill="white"/>
</clipPath>
</defs>
</svg>
