<svg width="24" height="24" viewBox="0 0 24 24" fill="none" xmlns="http://www.w3.org/2000/svg">
<g id="ic_my">
<path id="Vector" d="M12 13C14.7614 13 17 10.7614 17 8C17 5.23858 14.7614 3 12 3C9.23858 3 7 5.23858 7 8C7 10.7614 9.23858 13 12 13Z" stroke="black" stroke-width="2" stroke-miterlimit="10"/>
<path id="Vector_2" d="M15.0498 12.0981V12.0999C17.3179 12.8716 20 14.6388 20 18.6821V20.49C20 21.3264 19.3242 22.0055 18.4924 22C15.4368 21.9815 8.54777 21.9445 5.49988 21.9445C4.67004 21.9445 4 21.269 4 20.4345V18.6765C4 16.8482 4.98388 13.3064 8.83273 12" stroke="black" stroke-width="2" stroke-miterlimit="10"/>
</g>
</svg>
