<svg width="16" height="16" viewBox="0 0 16 16" fill="none" xmlns="http://www.w3.org/2000/svg">
<g id="pencil" clip-path="url(#clip0_2160_1943)">
<path id="Vector" d="M9.88085 2.68735L1.07742 11.4914C1.03313 11.5358 1.00115 11.5919 0.985924 11.6522L0.0101485 15.5688C-0.0190398 15.6866 0.0156054 15.812 0.101647 15.8981C0.16675 15.9632 0.255457 15.9992 0.346194 15.9992C0.373986 15.9992 0.402413 15.9958 0.430078 15.9888L4.34663 15.0129C4.40767 14.9977 4.46313 14.9658 4.50742 14.9215L13.3116 6.11811L9.88085 2.68735Z" fill="#AAABAF"/>
<path id="Vector_2" d="M15.4926 1.48697L14.5126 0.507003C13.8577 -0.147956 12.7162 -0.147321 12.062 0.507003L10.8616 1.7074L14.2922 5.13804L15.4926 3.93764C15.8198 3.6106 16 3.17532 16 2.71237C16 2.24941 15.8198 1.81413 15.4926 1.48697Z" fill="#AAABAF"/>
</g>
<defs>
<clipPath id="clip0_2160_1943">
<rect width="16" height="16" fill="white"/>
</clipPath>
</defs>
</svg>
