<svg width="20" height="20" viewBox="0 0 20 20" fill="none" xmlns="http://www.w3.org/2000/svg">
<g id="ic/pants">
<path id="Vector" d="M16.7343 1.64679C16.7343 1.01344 16.2209 0.5 15.5875 0.5H3.6605C3.02713 0.5 2.51367 1.01344 2.51367 1.64679V2.33486H16.7343V1.64679Z" fill="#66C7FF"/>
<path id="Vector_2" d="M9.62225 3.76078L10.8239 5.99237C10.944 6.21542 11.2222 6.29888 11.4453 6.17877C11.6684 6.05867 11.7518 5.78046 11.6317 5.55741L10.3903 3.25195H13.146L13.3144 4.50993C13.5881 6.55457 15.1692 8.13847 17.1473 8.46516L18.2397 18.262C18.2927 18.929 17.7657 19.4997 17.0964 19.4997H11.9885C11.3919 19.4997 10.8949 19.0421 10.8456 18.4476L9.85084 9.3701C9.8276 9.08952 9.4169 9.08952 9.39367 9.3701L8.39884 18.4476C8.34962 19.0421 7.85263 19.4997 7.25594 19.4997H2.14689C1.47809 19.4997 0.951168 18.9297 1.0036 18.263L2.0829 8.47163C4.0798 8.15993 5.68049 6.56842 5.95605 4.50993L6.12445 3.25195H8.85424L7.61281 5.55741C7.49269 5.78046 7.57615 6.05867 7.79921 6.17877C8.02229 6.29888 8.30049 6.21542 8.42061 5.99237L9.62225 3.76078Z" fill="#66C7FF"/>
<path id="Vector_3" d="M5.19968 3.25195H2.49415L2.1582 7.52484C3.6574 7.19847 4.83666 5.96379 5.04756 4.38821L5.19968 3.25195Z" fill="#66C7FF"/>
<path id="Vector_4" d="M14.0713 3.25195L14.2234 4.38821C14.4324 5.94927 15.5919 7.17569 17.0714 7.51558L16.7322 3.25195H14.0713Z" fill="#66C7FF"/>
</g>
</svg>
