<svg width="20" height="20" viewBox="0 0 20 20" fill="none" xmlns="http://www.w3.org/2000/svg">
<g id="ic/run_off">
<path id="Vector" d="M14.252 3.7718C15.3139 4.06352 16.4191 3.47082 16.7225 2.44979C17.0259 1.42877 16.4095 0.366076 15.3476 0.0743553C14.2857 -0.217365 13.1805 0.375337 12.8771 1.39636C12.5737 2.41738 13.1902 3.48239 14.252 3.7718Z" fill="#1432F0"/>
<path id="Vector_2" d="M19.7515 8.70149C19.7515 8.70149 16.1127 9.59554 15.5542 8.24616C15.3205 7.68412 14.9908 6.20668 14.5479 5.58773C13.7385 4.45415 13.0422 3.82334 12.3631 3.44864C11.0789 2.7372 7.52614 3.26367 7.52614 3.26367C5.53082 3.65496 4.3228 6.57426 4.3228 6.57426L5.14208 6.9869C5.14208 6.9869 6.46328 5.29129 7.91487 5.16323C9.36647 5.03517 10.3112 5.31738 10.3112 5.31738C8.88178 8.2343 7.73773 11.3433 4.89359 11.884C2.04945 12.4247 0.706114 10.0509 0.706114 10.0509L0 11.0445C0 11.0445 2.36191 14.2199 5.27494 14.0089C8.03543 13.8097 9.26805 12.5812 9.26805 12.5812C9.26805 12.5812 12.8134 13.231 12.9684 15.5171C13.0791 17.1464 11.5808 19.9992 11.5808 19.9992H13.1874C13.1874 19.9992 15.0597 17.4096 15.1212 14.993C15.2097 11.4358 11.4135 10.2833 11.4135 10.2833L13.1037 8.10624C13.1037 8.10624 14.2478 10.7837 15.938 10.8927C17.4782 10.8927 20 9.69988 20 9.69988L19.749 8.69912L19.7515 8.70149Z" fill="#1432F0"/>
</g>
</svg>
