<svg width="20" height="20" viewBox="0 0 20 20" fill="none" xmlns="http://www.w3.org/2000/svg">
<g id="ic/bookmark_line">
<path id="Vector" d="M4.26672 17.1958L3.51672 17.5172L3.51672 3.51836C3.51672 3.0091 3.6982 2.57299 4.06117 2.21002C4.42413 1.84706 4.85993 1.66589 5.36858 1.6665H14.6278C15.1371 1.6665 15.5732 1.84799 15.9362 2.21095C16.2991 2.57391 16.4803 3.00972 16.4797 3.51836V17.5172L15.7297 17.1958M4.26672 17.1958V18.0117L9.9982 15.5554L15.7297 18.0117V17.1958M4.26672 17.1958L9.70276 14.866L9.9982 14.7394L10.2936 14.866L15.7297 17.1958M4.26672 17.1958V3.51836C4.26672 3.20978 4.36793 2.96392 4.5915 2.74035C4.81504 2.51681 5.0603 2.41613 5.36767 2.41651H5.36858H14.6278C14.9364 2.41651 15.1823 2.51771 15.4058 2.74128C15.6294 2.96482 15.7301 3.21008 15.7297 3.51745V3.51836V17.1958" stroke="black" stroke-width="1.5"/>
</g>
</svg>
