<svg width="20" height="20" viewBox="0 0 20 20" fill="none" xmlns="http://www.w3.org/2000/svg">
<g id="ic/run_on">
<path id="Vector" d="M14.2522 3.7718C15.3141 4.06352 16.4193 3.47082 16.7227 2.44979C17.026 1.42877 16.4096 0.366076 15.3478 0.0743553C14.2859 -0.217365 13.1807 0.375337 12.8773 1.39636C12.5739 2.41738 13.1903 3.48239 14.2522 3.7718Z" fill="#6B84FF"/>
<path id="Vector_2" d="M19.7515 8.70222C19.7515 8.70222 16.1127 9.59627 15.5542 8.24689C15.3205 7.68485 14.9908 6.20742 14.5479 5.58846C13.7385 4.45489 13.0422 3.82407 12.3631 3.44938C11.0789 2.73793 7.52614 3.2644 7.52614 3.2644C5.53082 3.6557 4.3228 6.575 4.3228 6.575L5.14208 6.98763C5.14208 6.98763 6.46328 5.29202 7.91487 5.16396C9.36647 5.0359 10.3112 5.31811 10.3112 5.31811C8.88178 8.23504 7.73773 11.3441 4.89359 11.8848C2.04945 12.4255 0.706114 10.0516 0.706114 10.0516L0 11.0452C0 11.0452 2.36191 14.2207 5.27494 14.0096C8.03543 13.8104 9.26805 12.582 9.26805 12.582C9.26805 12.582 12.8134 13.2318 12.9684 15.5179C13.0791 17.1471 11.5808 20 11.5808 20H13.1874C13.1874 20 15.0597 17.4103 15.1212 14.9938C15.2097 11.4365 11.4135 10.284 11.4135 10.284L13.1037 8.10698C13.1037 8.10698 14.2478 10.7844 15.938 10.8935C17.4782 10.8935 20 9.70062 20 9.70062L19.749 8.69985L19.7515 8.70222Z" fill="#6B84FF"/>
</g>
</svg>
