<svg width="32" height="32" viewBox="0 0 32 32" fill="none" xmlns="http://www.w3.org/2000/svg">
<path d="M21.4908 5.03645L21.483 5.01894L21.4638 4.97688C21.1493 4.26824 20.5872 3.70553 19.9946 3.32508C19.3977 2.94185 18.6505 2.66667 17.8754 2.66667H14.1186C13.3435 2.66667 12.5963 2.94185 11.9994 3.32508C11.4068 3.70552 10.8448 4.26821 10.5303 4.97682L10.511 5.01893L10.5032 5.03645C10.4479 5.16213 10.2946 5.35767 10.0302 5.52741C9.76734 5.69614 9.51293 5.76317 9.35161 5.76317H4.36899C2.73137 5.76317 1.33317 7.07063 1.33317 8.75239V23.6774C1.33317 25.3592 2.73137 26.6667 4.36899 26.6667H27.6307C29.2683 26.6667 30.6665 25.3592 30.6665 23.6774V8.75239C30.6665 7.07063 29.2683 5.76317 27.6307 5.76317H22.6424C22.4811 5.76317 22.2267 5.69614 21.9638 5.52741C21.6994 5.35767 21.5461 5.16213 21.4908 5.03645Z" stroke="#505968" stroke-width="2.66667" stroke-linecap="round" stroke-linejoin="round"/>
<path d="M21.3332 16C21.3332 18.9475 18.9474 21.3334 15.9998 21.3334C13.0523 21.3334 10.6665 18.9475 10.6665 16C10.6665 13.0525 13.0523 10.6667 15.9998 10.6667C18.9474 10.6667 21.3332 13.0583 21.3332 16Z" stroke="#505968" stroke-width="2.66667" stroke-linecap="round" stroke-linejoin="round"/>
<path d="M24 10.6667H25.3333" stroke="#505968" stroke-width="2.66667" stroke-linecap="round" stroke-linejoin="round"/>
</svg>
