<svg width="20" height="20" viewBox="0 0 20 20" fill="none" xmlns="http://www.w3.org/2000/svg">
<g id="ic/ eat_off">
<path id="Subtract" fill-rule="evenodd" clip-rule="evenodd" d="M6.75996 0.4375C6.75996 0.43755 6.75996 0.437601 6.75996 0.437651V4.7849C6.75996 5.06104 6.5361 5.2849 6.25996 5.2849C5.98382 5.2849 5.75996 5.06104 5.75996 4.7849V0.437651C5.75996 0.437601 5.75996 0.43755 5.75996 0.4375H4.8311L4.44673 5.75925C4.42134 6.26643 4.6099 6.76274 4.97252 7.12501C5.44755 7.59958 6.04587 8.29152 6.04587 8.76972C6.04587 10.5022 5.89126 12.4393 5.74636 14.2548C5.61856 15.856 5.49832 17.3626 5.49832 18.551C5.49832 19.7501 6.20542 20.0001 6.96329 20.0001H7.0068C7.76467 20.0001 8.47178 19.7501 8.47178 18.551C8.47178 17.3626 8.35153 15.856 8.22374 14.2548C8.07883 12.4393 7.92423 10.5022 7.92423 8.76972C7.92423 8.29152 8.52254 7.59958 8.99757 7.12501C9.36019 6.76274 9.54875 6.26643 9.51974 5.75925L9.18251 0.4375H8.21037C8.21037 0.43755 8.21037 0.437601 8.21037 0.437651V4.7849C8.21037 5.06104 7.98651 5.2849 7.71037 5.2849C7.43423 5.2849 7.21037 5.06104 7.21037 4.7849V0.437651C7.21037 0.437601 7.21037 0.43755 7.21037 0.4375H6.75996Z" fill="#252525"/>
<path id="Vector" d="M12.5029 5.44074C12.5029 3.35185 13.5853 0 15 0C16.4147 0 17.4971 3.35185 17.4971 5.44074C17.5257 5.95926 17.3399 6.46667 16.9827 6.83704C16.5147 7.32222 15.9253 8.02963 15.9253 8.51852C15.9253 11.8519 16.4647 15.9259 16.4647 18.5185C16.4647 19.7444 15.7681 20 15.0214 20H14.9786C14.2319 20 13.5353 19.7444 13.5353 18.5185C13.5353 15.9259 14.0747 11.8519 14.0747 8.51852C14.0747 8.02963 13.4853 7.32222 13.0173 6.83704C12.6601 6.46667 12.4743 5.95926 12.5029 5.44074Z" fill="#252525"/>
</g>
</svg>
