<svg width="16" height="16" viewBox="0 0 16 16" fill="none" xmlns="http://www.w3.org/2000/svg">
<path d="M8.33325 4.5373C8.33325 4.3948 8.26302 4.25813 8.138 4.15737C8.01299 4.05661 7.84343 4 7.66663 4C7.48983 4 7.32027 4.05661 7.19525 4.15737C7.07023 4.25813 7 4.3948 7 4.5373V8.11927C6.99995 8.21037 7.02864 8.29997 7.08337 8.37968C7.1381 8.45938 7.21708 8.52656 7.31287 8.5749L9.97938 9.91814C10.1293 9.99376 10.3104 10.0183 10.4827 9.9863C10.5681 9.97047 10.6487 9.94124 10.72 9.90029C10.7914 9.85934 10.852 9.80747 10.8984 9.74764C10.9449 9.6878 10.9763 9.62118 10.9908 9.55157C11.0053 9.48196 11.0027 9.41073 10.983 9.34195C10.9634 9.27316 10.9271 9.20817 10.8763 9.15068C10.8255 9.09319 10.7611 9.04433 10.6869 9.00688L8.33325 7.82125V4.5373Z" fill="#6053F3"/>
<path fill-rule="evenodd" clip-rule="evenodd" d="M8 1C6.14348 1 4.36301 1.7375 3.05025 3.05025C1.7375 4.36301 1 6.14348 1 8C1 9.85652 1.7375 11.637 3.05025 12.9497C4.36301 14.2625 6.14348 15 8 15C9.85652 15 11.637 14.2625 12.9497 12.9497C14.2625 11.637 15 9.85652 15 8C15 6.14348 14.2625 4.36301 12.9497 3.05025C11.637 1.7375 9.85652 1 8 1ZM2.2 8C2.2 7.23833 2.35002 6.48412 2.6415 5.78044C2.93298 5.07675 3.3602 4.43736 3.89878 3.89878C4.43736 3.3602 5.07675 2.93298 5.78044 2.6415C6.48412 2.35002 7.23833 2.2 8 2.2C8.76167 2.2 9.51588 2.35002 10.2196 2.6415C10.9233 2.93298 11.5626 3.3602 12.1012 3.89878C12.6398 4.43736 13.067 5.07675 13.3585 5.78044C13.65 6.48412 13.8 7.23833 13.8 8C13.8 9.53826 13.1889 11.0135 12.1012 12.1012C11.0135 13.1889 9.53826 13.8 8 13.8C6.46174 13.8 4.98649 13.1889 3.89878 12.1012C2.81107 11.0135 2.2 9.53826 2.2 8Z" fill="#6053F3"/>
</svg>
