<svg width="20" height="20" viewBox="0 0 20 20" fill="none" xmlns="http://www.w3.org/2000/svg">
<g id="ic/exercise">
<path id="Vector" d="M15.4989 9.2C15.2689 8.9 14.9889 8.64 14.7289 8.38C14.0589 7.78 13.2989 7.35 12.6589 6.72C11.1689 5.26 10.8389 2.85 11.7889 1C10.8389 1.23 10.0089 1.75 9.29892 2.32C6.70892 4.4 5.68892 8.07 6.90892 11.22C6.94892 11.32 6.98892 11.42 6.98892 11.55C6.98892 11.77 6.83892 11.97 6.63892 12.05C6.40892 12.15 6.16892 12.09 5.97892 11.93C5.92182 11.8828 5.8743 11.8251 5.83892 11.76C4.70892 10.33 4.52892 8.28 5.28892 6.64C3.61892 8 2.70892 10.3 2.83892 12.47C2.89892 12.97 2.95892 13.47 3.12892 13.97C3.26892 14.57 3.53892 15.17 3.83892 15.7C4.91892 17.43 6.78892 18.67 8.79892 18.92C10.9389 19.19 13.2289 18.8 14.8689 17.32C16.6989 15.66 17.3389 13 16.3989 10.72L16.2689 10.46C16.0589 10 15.4989 9.2 15.4989 9.2ZM12.3389 15.5C12.0589 15.74 11.5989 16 11.2389 16.1C10.1189 16.5 8.99892 15.94 8.33892 15.28C9.52892 15 10.2389 14.12 10.4489 13.23C10.6189 12.43 10.2989 11.77 10.1689 11C10.0489 10.26 10.0689 9.63 10.3389 8.94C10.5289 9.32 10.7289 9.7 10.9689 10C11.7389 11 12.9489 11.44 13.2089 12.8C13.2489 12.94 13.2689 13.08 13.2689 13.23C13.2989 14.05 12.9389 14.95 12.3389 15.5Z" fill="#252525"/>
</g>
</svg>
