<svg width="16" height="16" viewBox="0 0 16 16" fill="none" xmlns="http://www.w3.org/2000/svg">
<circle cx="8" cy="8" r="7.5" fill="#BDC1C7" stroke="#BDC1C7"/>
<path d="M7.28516 10.2705C7.29785 8.60742 7.79297 8.09961 8.63086 7.5791C9.16406 7.24902 9.57031 6.79199 9.57031 6.11914C9.57031 5.31934 8.96094 4.82422 8.19922 4.82422C7.51367 4.82422 6.85352 5.24316 6.79004 6.18262H5.41895C5.46973 4.57031 6.68848 3.68164 8.19922 3.68164C9.84961 3.68164 10.9541 4.67188 10.9541 6.11914C10.9541 7.13477 10.4717 7.82031 9.65918 8.31543C8.89746 8.77246 8.60547 9.24219 8.58008 10.2705V10.3467H7.28516V10.2705ZM7.9834 13.0889C7.48828 13.0889 7.06934 12.6826 7.08203 12.1875C7.06934 11.6924 7.48828 11.2861 7.9834 11.2861C8.46582 11.2861 8.88477 11.6924 8.88477 12.1875C8.88477 12.6826 8.46582 13.0889 7.9834 13.0889Z" fill="white"/>
</svg>
