<svg width="20" height="20" viewBox="0 0 20 20" fill="none" xmlns="http://www.w3.org/2000/svg">
<g id="ic/run_off">
<path id="Vector" d="M14.2522 3.7718C15.3141 4.06352 16.4193 3.47082 16.7227 2.44979C17.026 1.42877 16.4096 0.366076 15.3478 0.0743553C14.2859 -0.217365 13.1807 0.375337 12.8773 1.39636C12.5739 2.41738 13.1903 3.48239 14.2522 3.7718Z" fill="#252525"/>
<path id="Vector_2" d="M19.7515 8.70246C19.7515 8.70246 16.1127 9.59651 15.5542 8.24714C15.3205 7.6851 14.9908 6.20766 14.5479 5.5887C13.7385 4.45513 13.0422 3.82432 12.3631 3.44962C11.0789 2.73818 7.52614 3.26465 7.52614 3.26465C5.53082 3.65594 4.3228 6.57524 4.3228 6.57524L5.14208 6.98788C5.14208 6.98788 6.46328 5.29227 7.91487 5.16421C9.36647 5.03615 10.3112 5.31835 10.3112 5.31835C8.88178 8.23528 7.73773 11.3443 4.89359 11.885C2.04945 12.4257 0.706114 10.0518 0.706114 10.0518L0 11.0455C0 11.0455 2.36191 14.2209 5.27494 14.0099C8.03543 13.8106 9.26805 12.5822 9.26805 12.5822C9.26805 12.5822 12.8134 13.232 12.9684 15.5181C13.0791 17.1473 11.5808 20.0002 11.5808 20.0002H13.1874C13.1874 20.0002 15.0597 17.4106 15.1212 14.994C15.2097 11.4368 11.4135 10.2842 11.4135 10.2842L13.1037 8.10722C13.1037 8.10722 14.2478 10.7846 15.938 10.8937C17.4782 10.8937 20 9.70086 20 9.70086L19.749 8.70009L19.7515 8.70246Z" fill="#252525"/>
</g>
</svg>
