<svg width="25" height="24" viewBox="0 0 25 24" fill="none" xmlns="http://www.w3.org/2000/svg">
<g id="ic_market">
<path id="Vector" d="M5.50007 6H19.5001C20.0501 6 20.5001 5.55 20.5001 5C20.5001 4.45 20.0501 4 19.5001 4H5.50007C4.95007 4 4.50007 4.45 4.50007 5C4.50007 5.55 4.95007 6 5.50007 6ZM20.6601 7.8C20.5701 7.34 20.1601 7 19.6801 7H5.32007C4.84007 7 4.43007 7.34 4.34007 7.8L3.34007 12.8C3.22007 13.42 3.69007 14 4.32007 14H4.50007V19C4.50007 19.55 4.95007 20 5.50007 20H13.5001C14.0501 20 14.5001 19.55 14.5001 19V14H18.5001V19C18.5001 19.55 18.9501 20 19.5001 20C20.0501 20 20.5001 19.55 20.5001 19V14H20.6801C21.3101 14 21.7801 13.42 21.6601 12.8L20.6601 7.8ZM12.5001 18H6.50007V14H12.5001V18Z" fill="#0047BA"/>
</g>
</svg>
