<svg width="20" height="20" viewBox="0 0 20 20" fill="none" xmlns="http://www.w3.org/2000/svg">
<g id="ic/ eat_off">
<path id="Subtract" fill-rule="evenodd" clip-rule="evenodd" d="M6.75984 0.4375C6.75984 0.43755 6.75984 0.437601 6.75984 0.437651V4.7849C6.75984 5.06104 6.53598 5.2849 6.25984 5.2849C5.9837 5.2849 5.75984 5.06104 5.75984 4.7849V0.437651C5.75984 0.437601 5.75984 0.43755 5.75984 0.4375H4.83098L4.4466 5.75925C4.42122 6.26643 4.60978 6.76274 4.9724 7.12501C5.44743 7.59958 6.04575 8.29152 6.04575 8.76972C6.04575 10.5022 5.89114 12.4393 5.74624 14.2548C5.61844 15.856 5.49819 17.3626 5.49819 18.551C5.49819 19.7501 6.2053 20.0001 6.96317 20.0001H7.00668C7.76455 20.0001 8.47166 19.7501 8.47166 18.551C8.47166 17.3626 8.35141 15.856 8.22361 14.2548C8.07871 12.4393 7.9241 10.5022 7.9241 8.76972C7.9241 8.29152 8.52242 7.59958 8.99745 7.12501C9.36007 6.76274 9.54863 6.26643 9.51962 5.75925L9.18239 0.4375H8.21025C8.21025 0.43755 8.21025 0.437601 8.21025 0.437651V4.7849C8.21025 5.06104 7.98639 5.2849 7.71025 5.2849C7.4341 5.2849 7.21025 5.06104 7.21025 4.7849V0.437651C7.21025 0.437601 7.21025 0.43755 7.21025 0.4375H6.75984Z" fill="#1432F0"/>
<path id="Vector" d="M12.5029 5.44074C12.5029 3.35185 13.5853 0 15 0C16.4147 0 17.4971 3.35185 17.4971 5.44074C17.5257 5.95926 17.3399 6.46667 16.9827 6.83704C16.5147 7.32222 15.9253 8.02963 15.9253 8.51852C15.9253 11.8519 16.4647 15.9259 16.4647 18.5185C16.4647 19.7444 15.7681 20 15.0214 20H14.9786C14.2319 20 13.5353 19.7444 13.5353 18.5185C13.5353 15.9259 14.0747 11.8519 14.0747 8.51852C14.0747 8.02963 13.4853 7.32222 13.0173 6.83704C12.6601 6.46667 12.4743 5.95926 12.5029 5.44074Z" fill="#1432F0"/>
</g>
</svg>
