<svg width="137" height="136" viewBox="0 0 137 136" fill="none" xmlns="http://www.w3.org/2000/svg">
<g id="img_&#237;&#148;&#132;&#235;&#161;&#156;&#237;&#149;&#132; &#235;&#175;&#184;&#236;&#132;&#164;&#236;&#160;&#149;">
<rect id="Rectangle 2499" x="0.984375" width="136" height="136" rx="40" fill="#EEF0FF"/>
<g id="Group 36982">
<path id="Vector" d="M83.3646 44.82C83.3646 53.01 76.7246 59.65 68.5446 59.65C60.3646 59.65 53.7246 53.01 53.7246 44.82C53.7246 36.63 60.3546 30 68.5446 30C76.7346 30 83.3646 36.64 83.3646 44.82Z" fill="white"/>
<path id="Vector_2" d="M101.104 95.3698C101.104 106.92 90.5544 105.71 77.5444 105.71H59.5444C46.5344 105.71 35.9844 106.92 35.9844 95.3698C35.9844 76.5898 52.2444 62.4498 70.5944 62.7998C87.8044 63.1198 101.094 77.8898 101.094 95.3698H101.104Z" fill="white"/>
</g>
</g>
</svg>
