<svg width="204" height="72" viewBox="0 0 204 72" fill="none" xmlns="http://www.w3.org/2000/svg">
<rect width="72" height="72" rx="23.2686" fill="white"/>
<path d="M53.1191 45.7019L35.8322 55.6841L18.5453 45.7019L9.69238 50.8127L35.8322 65.9057L61.972 50.8127L53.1191 45.7019Z" fill="#FFAE36"/>
<path d="M9.69238 20.6291V50.8127L18.5453 45.7019V25.7399L35.8322 15.7602V5.53857L9.69238 20.6291Z" fill="#6053F3"/>
<path d="M35.832 5.53857V15.7602L53.119 25.7399V45.7019L61.9718 50.8127V20.6291L35.832 5.53857Z" fill="#AAB2FF"/>
<path d="M107.863 33.6242C110.71 33.2884 113.763 32.7978 116.378 32.2232V38.0143H125.184V8.22596H116.378V24.5469C115.132 24.8116 112.627 25.412 111.181 25.6638C112.446 24.2241 113.253 21.7321 113.253 19.5822C113.253 13.3004 107.733 8 99.1146 8C91.2447 8 85.0533 12.8162 85.0533 19.8856C85.0533 23.1072 86.6931 26.1028 88.9076 27.6329L81.1667 27.4392V34.896L93.7496 34.5926C91.3544 36.2712 87.2484 38.35 83.9751 40.0028L88.9851 47.537C97.0681 43.0694 103.544 38.5243 107.856 33.6177L107.863 33.6242ZM98.9532 15.6117C102.207 15.6117 104.886 17.4323 104.886 20.5183C104.886 22.6295 103.498 25.0763 101.62 26.303C100.793 26.303 100.406 26.3417 99.9152 26.303C96.048 26.006 93.2525 24.2758 93.2525 20.8347C93.2525 17.9101 95.68 15.6053 98.9532 15.6053V15.6117Z" fill="#6053F3"/>
<path d="M136.96 8.22583H128.154V38.0206H136.96V8.22583Z" fill="#6053F3"/>
<path d="M201.779 25.328H191.753V8.22583H181.823V63.9611H191.753V33.9791H201.779V25.328Z" fill="#6053F3"/>
<path d="M99.8891 55.2778H136.953V40.0996H106.455C104.053 42.2559 101.413 44.1347 98.5915 45.697L96.971 46.5944H128.632V48.783H91.5673V64H99.8891V63.9613H138.238V57.4665H99.8891V55.2778Z" fill="#6053F3"/>
<path d="M156.076 44.89H154.598V19.7436H177.233V11.3442H144.669V53.341H154.598V53.3023H159.556C170.461 53.3023 179.344 50.3325 179.344 50.3325L177.872 42.2495C177.872 42.2495 169.86 44.9029 156.076 44.9029V44.89Z" fill="#6053F3"/>
</svg>
