<svg width="176" height="40" viewBox="0 0 176 40" fill="none" xmlns="http://www.w3.org/2000/svg">
<rect width="176" height="40" fill="black"/>
<rect width="360" height="800" transform="translate(-92 -388)" fill="#6053F3"/>
<g clip-path="url(#clip0_2_6)">
<path d="M87.4568 31.7934C84.3089 36.3013 79.0216 39.22 73.2301 39.22C63.8933 39.22 57.5415 32.9089 57.5415 23.5722C57.5415 14.2354 64.2907 7.92432 72.7258 7.92432C80.2645 7.92432 86.0051 12.4526 87.5179 19.2272C87.5587 19.4055 87.5943 19.5889 87.63 19.7723C87.9967 21.8046 87.8643 23.8931 87.3498 25.8949L87.2938 26.119H65.0853C65.7627 30.1532 68.8546 33.4947 73.2403 33.4947C77.0656 33.4947 80.4377 31.2127 82.2357 28.0291L87.467 31.7934H87.4568ZM80.4835 20.4956C79.638 16.5683 76.8262 13.6496 72.7207 13.6496C68.9514 13.6496 65.9155 16.2474 65.0191 20.4956H80.4835Z" fill="white"/>
<path d="M99.7174 -0.0473633V38.4253H92.52V-0.0473633H99.7174Z" fill="white"/>
<path d="M136.713 -0.0473633V38.4253H129.516V35.6136C127.493 37.8956 123.215 39.2199 119.843 39.2199C111.28 39.2199 104.271 32.9089 104.271 23.5721C104.271 14.2354 111.28 7.92427 119.843 7.92427C123.215 7.92427 127.269 9.09073 129.516 11.1588V-0.0473633H136.713ZM120.464 13.6496C115.345 13.6496 111.469 17.6787 111.469 23.5721C111.469 29.4655 115.35 33.4895 120.464 33.4895C125.578 33.4895 129.46 29.8272 129.46 23.5721C129.46 17.3171 125.578 13.6496 120.464 13.6496Z" fill="white"/>
<path d="M174.727 8.71893V38.4254H167.53V35.6137C165.508 37.8956 161.229 39.22 157.857 39.22C149.294 39.22 142.285 32.9089 142.285 23.5722C142.285 14.2354 149.294 7.92432 157.857 7.92432C161.229 7.92432 165.283 9.09077 167.53 11.1588V8.71893H174.727ZM158.478 13.6547C153.359 13.6547 149.483 17.6838 149.483 23.5772C149.483 29.4707 153.364 33.4947 158.478 33.4947C163.592 33.4947 167.474 29.8323 167.474 23.5772C167.474 17.3222 163.592 13.6547 158.478 13.6547Z" fill="white"/>
<path d="M30.2037 35.8835C37.2534 29.8322 40.3198 23.3581 40.3198 15.2031C40.3198 8.31644 36.1939 3.43668 30.1477 3.43668C24.1014 3.43668 19.9705 8.65263 19.9705 15.2031C19.9705 29.8628 27.8198 38.9703 37.666 38.9703C48.1743 38.9703 55.1985 26.2717 56.2121 -0.0168457H48.8619C48.2558 21.1169 42.994 31.6099 37.7118 31.6099C32.4296 31.6099 27.4276 27.428 27.4276 15.198C27.4276 12.7276 28.6348 10.9957 30.1833 10.9957C31.6197 10.9957 32.8168 12.5748 32.8168 15.198C32.8168 20.2917 32.0374 23.6026 27.3003 28.9103" fill="white"/>
<path d="M21.6311 31.5234C23.1236 34.9005 26.2613 36.938 26.2613 36.938C26.2613 36.938 24.6517 38.9754 20.5411 38.9754C10.0379 38.9754 3.01365 26.2768 2 -0.0117188H9.35021C9.95636 21.122 15.2181 31.615 20.5003 31.615C20.8823 31.615 21.6362 31.5234 21.6362 31.5234H21.6311Z" fill="white"/>
</g>
<defs>
<clipPath id="clip0_2_6">
<rect width="176" height="40" fill="white"/>
</clipPath>
</defs>
</svg>
