<svg width="180" height="40" viewBox="0 0 180 40" fill="none" xmlns="http://www.w3.org/2000/svg">
<g id="B_Logo" clip-path="url(#clip0_1777_4177)">
<g id="Group 36983">
<path id="Vector" d="M88.7902 31.7934C85.6423 36.3013 80.355 39.22 74.5635 39.22C65.2267 39.22 58.8749 32.9089 58.8749 23.5722C58.8749 14.2354 65.624 7.92432 74.0592 7.92432C81.5979 7.92432 87.3385 12.4526 88.8513 19.2272C88.892 19.4055 88.9277 19.5889 88.9633 19.7723C89.3301 21.8046 89.1977 23.8931 88.6832 25.8949L88.6272 26.119H66.4186C67.0961 30.1532 70.188 33.4947 74.5737 33.4947C78.399 33.4947 81.771 31.2127 83.5691 28.0291L88.8003 31.7934H88.7902ZM81.8169 20.4956C80.9713 16.5683 78.1596 13.6496 74.0541 13.6496C70.2848 13.6496 67.2489 16.2474 66.3524 20.4956H81.8169Z" fill="#6053F3"/>
<path id="Vector_2" d="M101.051 -0.0473633V38.4253H93.8534V-0.0473633H101.051Z" fill="#6053F3"/>
<path id="Vector_3" d="M138.046 -0.0473633V38.4253H130.849V35.6136C128.827 37.8956 124.548 39.2199 121.176 39.2199C112.613 39.2199 105.604 32.9089 105.604 23.5721C105.604 14.2354 112.613 7.92427 121.176 7.92427C124.548 7.92427 128.603 9.09073 130.849 11.1588V-0.0473633H138.046ZM121.797 13.6496C116.678 13.6496 112.802 17.6787 112.802 23.5721C112.802 29.4655 116.683 33.4895 121.797 33.4895C126.911 33.4895 130.793 29.8272 130.793 23.5721C130.793 17.3171 126.911 13.6496 121.797 13.6496Z" fill="#6053F3"/>
<path id="Vector_4" d="M176.061 8.71893V38.4254H168.863V35.6136C166.841 37.8956 162.562 39.22 159.19 39.22C150.628 39.22 143.619 32.9089 143.619 23.5722C143.619 14.2354 150.628 7.92432 159.19 7.92432C162.562 7.92432 166.617 9.09077 168.863 11.1588V8.71893H176.061ZM159.812 13.6547C154.692 13.6547 150.816 17.6838 150.816 23.5772C150.816 29.4707 154.698 33.4947 159.812 33.4947C164.926 33.4947 168.807 29.8323 168.807 23.5772C168.807 17.3222 164.926 13.6547 159.812 13.6547Z" fill="#6053F3"/>
<path id="Vector_5" d="M31.5372 35.8838C38.5869 29.8325 41.6533 23.3584 41.6533 15.2034C41.6533 8.31669 37.5274 3.43692 31.4812 3.43692C25.4349 3.43692 21.304 8.65287 21.304 15.2034C21.304 29.863 29.1533 38.9706 38.9995 38.9706C49.5078 38.9706 56.532 26.272 57.5456 -0.0166016H50.1954C49.5893 21.1171 44.3275 31.6102 39.0453 31.6102C33.7631 31.6102 28.7611 27.4282 28.7611 15.1983C28.7611 12.7278 29.9683 10.996 31.5168 10.996C32.9532 10.996 34.1503 12.575 34.1503 15.1983C34.1503 20.292 33.3709 23.6029 28.6338 28.9105" fill="#6053F3"/>
<path id="Vector_6" d="M22.9645 31.5236C24.4569 34.9007 27.5947 36.9382 27.5947 36.9382C27.5947 36.9382 25.985 38.9757 21.8744 38.9757C11.3712 38.9757 4.34702 26.2771 3.33337 -0.0114746H10.6836C11.2897 21.1223 16.5515 31.6153 21.8337 31.6153C22.2157 31.6153 22.9696 31.5236 22.9696 31.5236H22.9645Z" fill="#6053F3"/>
</g>
</g>
<defs>
<clipPath id="clip0_1777_4177">
<rect width="180" height="40" fill="white"/>
</clipPath>
</defs>
</svg>
