<svg width="32" height="32" viewBox="0 0 32 32" fill="none" xmlns="http://www.w3.org/2000/svg">
<g id="&#235;&#175;&#184;&#236;&#133;&#152;_&#236;&#153;&#132;&#235;&#163;&#140;">
<path id="Vector" d="M31.3807 18.1649C31.2684 18.0136 31.0758 17.7191 30.8753 17.3449C30.6666 16.9628 30.4981 16.517 30.5222 16.0155C30.4981 15.514 30.6666 15.0602 30.8753 14.6861C31.0758 14.312 31.2684 14.0174 31.3807 13.8662C31.4851 13.7229 31.7017 13.4124 31.8622 12.9825C32.0146 12.5606 32.0547 12.0273 31.9103 11.4621C31.5573 10.3396 30.5142 9.83812 30.1611 9.72667C29.8081 9.58338 28.7971 9.20924 28.2515 8.38134C27.6979 7.5614 27.8102 6.46284 27.8102 6.10462C27.8343 5.76231 27.8423 4.57619 26.9436 3.81198C26.045 3.05572 24.8896 3.19105 24.5285 3.28658C24.1514 3.36619 23.1083 3.57316 22.1936 3.17513C21.7443 2.93632 21.3832 2.64974 21.1184 2.29947C20.8536 1.96513 20.6771 1.63078 20.5808 1.48749C20.4123 1.20091 19.7704 0.166042 18.599 0.0307123C18.0213 -0.0727749 17.4917 0.102357 17.0905 0.301371C16.6893 0.500385 16.4085 0.747163 16.2801 0.866571C16.1517 1.0019 15.8789 1.2646 15.5339 1.51138C15.1809 1.75019 14.7556 1.95717 14.2581 2.04473C13.2632 2.15618 12.3244 1.67855 11.9874 1.48749C11.8189 1.39197 11.49 1.23276 11.0487 1.16111C10.6154 1.09743 10.0457 1.05762 9.52415 1.32032C8.44095 1.79796 8.12 2.94428 8.03976 3.27862C7.93545 3.62092 7.73486 4.70356 6.97261 5.3404C6.21035 5.98521 5.1432 6.06482 4.75806 6.09666C4.38897 6.09666 3.24158 6.29567 2.59166 7.27482C1.94976 8.26193 2.28676 9.39233 2.41514 9.71871C2.51142 10.061 2.93668 11.0879 2.63178 12.0273C2.51142 12.5129 2.1985 12.895 1.90964 13.2054C1.63684 13.5159 1.33996 13.7388 1.19553 13.8502C1.05913 13.9617 0.738182 14.1925 0.489447 14.5587C0.240711 14.9249 0.0240711 15.4264 0 15.9996C0.0240711 16.5728 0.240711 17.0743 0.489447 17.4405C0.738182 17.8066 1.05913 18.0375 1.19553 18.1489C1.33996 18.2604 1.63684 18.4833 1.90964 18.7937C2.1985 19.1042 2.51142 19.4863 2.63178 19.9719C2.92866 20.9113 2.51142 21.9382 2.41514 22.2805C2.28676 22.6069 1.94976 23.7452 2.59166 24.7244C3.2496 25.7035 4.38897 25.8946 4.75806 25.9025C5.1432 25.9344 6.21035 26.014 6.97261 26.6588C7.73486 27.2956 7.93545 28.3783 8.03976 28.7206C8.11198 29.0549 8.44095 30.2012 9.52415 30.6789C10.0457 30.9495 10.6154 30.9097 11.0487 30.8381C11.49 30.7664 11.827 30.6072 11.9874 30.5117C12.3324 30.3206 13.2712 29.843 14.2581 29.9545C14.7556 30.05 15.1889 30.249 15.5339 30.4878C15.8789 30.7266 16.1517 30.9973 16.2801 31.1326C16.4085 31.252 16.6893 31.4988 17.0905 31.6978C17.4917 31.9048 18.0213 32.072 18.599 31.9685C19.7785 31.8252 20.4123 30.7983 20.5808 30.5117C20.6771 30.3684 20.8536 30.0341 21.1184 29.6997C21.3832 29.3574 21.7443 29.0629 22.1936 28.8241C23.1083 28.426 24.1514 28.641 24.5285 28.7126C24.8815 28.8081 26.037 28.9435 26.9436 28.1872C27.8423 27.423 27.8343 26.2369 27.8102 25.8946C27.8102 25.5363 27.6979 24.4378 28.2515 23.6178C28.7971 22.7899 29.8081 22.4158 30.1611 22.2725C30.5142 22.1611 31.5573 21.6595 31.9103 20.5371C32.0547 19.9719 32.0066 19.4386 31.8622 19.0166C31.7017 18.5868 31.4931 18.2843 31.3807 18.141V18.1649Z" fill="#FFAE35"/>
<path id="Vector 230" d="M10 16.0909L14.4815 21L21 12" stroke="white" stroke-width="3" stroke-linecap="round" stroke-linejoin="round"/>
</g>
</svg>
