<svg width="24" height="24" viewBox="0 0 24 24" fill="none" xmlns="http://www.w3.org/2000/svg">
<g id="conversation (1) 1" clip-path="url(#clip0_1952_20582)">
<path id="Vector" d="M0.0311165 20.6386L1.32732 16.3643C0.599659 15.0029 0.216419 13.4731 0.216419 11.9196C0.216419 6.71704 4.44909 2.48438 9.65167 2.48438C12.8022 2.48438 15.5964 4.03674 17.311 6.41638C20.9857 6.90033 23.8315 10.0525 23.8315 13.8572C23.8315 15.0705 23.5375 16.2658 22.9788 17.3341L23.9689 20.5985C24.0463 20.8537 23.9768 21.1308 23.7883 21.3194C23.6506 21.457 23.4659 21.5312 23.2771 21.5312C23.207 21.5312 23.1363 21.521 23.0673 21.5001L19.8029 20.51C18.7346 21.0687 17.5395 21.3627 16.3261 21.3627C15.2029 21.3627 14.1368 21.1143 13.1792 20.6702C12.089 21.1113 10.8983 21.3549 9.65167 21.3549C8.0982 21.3549 6.56835 20.9716 5.20696 20.244L0.932728 21.5402C0.863697 21.5611 0.793018 21.5713 0.722889 21.5713C0.534107 21.5713 0.349354 21.4971 0.211842 21.3595C0.023243 21.171 -0.046339 20.8938 0.0311165 20.6386ZM5.08062 18.7714C5.27251 18.7134 5.47961 18.7374 5.65282 18.8377C6.8626 19.5386 8.24542 19.9091 9.65167 19.9091C14.057 19.9091 17.6411 16.325 17.6411 11.9196C17.6411 7.5141 14.057 3.93018 9.65167 3.93018C5.24633 3.93018 1.66222 7.51429 1.66222 11.9196C1.66222 13.3259 2.03264 14.7087 2.73357 15.9185C2.83391 16.0917 2.8579 16.299 2.79986 16.4907L1.80706 19.7642L5.08062 18.7714ZM16.3261 19.9169C17.3926 19.9169 18.4415 19.6359 19.3588 19.1045C19.4702 19.0401 19.5952 19.0071 19.7214 19.0071C19.7917 19.0071 19.8624 19.0173 19.931 19.0382L22.1929 19.7241L21.507 17.4622C21.449 17.2705 21.473 17.0634 21.5733 16.89C22.1049 15.9727 22.3859 14.9238 22.3859 13.8572C22.3859 11.2026 20.6699 8.94141 18.2889 8.12403C18.8016 9.28602 19.0871 10.5701 19.0871 11.9196C19.0871 15.1767 17.4282 18.0535 14.9108 19.7496C15.3649 19.8587 15.8388 19.9169 16.3261 19.9169Z" fill="black"/>
<path id="Vector_2" d="M12.092 11.9237C12.092 11.5249 12.4153 11.2016 12.8141 11.2016C13.2129 11.2016 13.5362 11.5249 13.5362 11.9237C13.5362 12.3225 13.2129 12.6458 12.8141 12.6458C12.4153 12.6458 12.092 12.3225 12.092 11.9237Z" fill="black"/>
<path id="Vector_3" d="M8.95891 11.9237C8.95891 11.5249 9.28221 11.2016 9.68102 11.2016C10.0798 11.2016 10.4031 11.5249 10.4031 11.9237C10.4031 12.3225 10.0798 12.6458 9.68102 12.6458C9.28221 12.6458 8.95891 12.3225 8.95891 11.9237Z" fill="black"/>
<path id="Vector_4" d="M5.82387 11.9237C5.82387 11.5249 6.14717 11.2016 6.54598 11.2016C6.9448 11.2016 7.2681 11.5249 7.2681 11.9237C7.2681 12.3225 6.9448 12.6458 6.54598 12.6458C6.14717 12.6458 5.82387 12.3225 5.82387 11.9237Z" fill="black"/>
</g>
<defs>
<clipPath id="clip0_1952_20582">
<rect width="24" height="24" fill="white" transform="matrix(-1 0 0 1 24 0)"/>
</clipPath>
</defs>
</svg>
