<svg width="24" height="24" viewBox="0 0 24 24" fill="none" xmlns="http://www.w3.org/2000/svg">
<g id="ph:plus-light">
<path id="Vector" d="M11.3375 12.6625V20.25C11.3375 20.4257 11.4073 20.5942 11.5315 20.7185C11.6558 20.8427 11.8243 20.9125 12 20.9125C12.1757 20.9125 12.3442 20.8427 12.4685 20.7185C12.5927 20.5942 12.6625 20.4257 12.6625 20.25V12.6625H20.25C20.4257 12.6625 20.5942 12.5927 20.7185 12.4685C20.8427 12.3442 20.9125 12.1757 20.9125 12C20.9125 11.8243 20.8427 11.6558 20.7185 11.5315C20.5942 11.4073 20.4257 11.3375 20.25 11.3375H12.6625V3.75C12.6625 3.57429 12.5927 3.40578 12.4685 3.28154C12.3442 3.1573 12.1757 3.0875 12 3.0875C11.8243 3.0875 11.6558 3.1573 11.5315 3.28154C11.4073 3.40578 11.3375 3.57429 11.3375 3.75V11.3375H3.75C3.57429 11.3375 3.40578 11.4073 3.28154 11.5315C3.1573 11.6558 3.0875 11.8243 3.0875 12C3.0875 12.1757 3.1573 12.3442 3.28154 12.4685C3.40578 12.5927 3.57429 12.6625 3.75 12.6625H11.3375Z" fill="black" stroke="black" stroke-width="0.2"/>
</g>
</svg>
