<svg width="24" height="24" viewBox="0 0 24 24" fill="none" xmlns="http://www.w3.org/2000/svg">
<g id="ic/setting">
<path id="Vector" d="M18.1292 20.1069L17.7844 19.2254C17.4428 18.2007 18.5065 16.8638 19.5864 16.8704C19.9735 16.8704 20.3638 16.9582 20.7282 17.1273C21.3137 16.171 21.7398 15.1399 22 14.0437C20.9461 13.6566 20.2142 12.6612 20.2142 11.5C20.2142 10.3388 20.9461 9.3434 22 8.95632C21.7365 7.86338 21.3104 6.829 20.7282 5.87268C19.7068 6.34433 18.487 6.15892 17.664 5.33597C16.8411 4.51301 16.6557 3.29322 17.1273 2.27184C16.171 1.68634 15.1399 1.26022 14.0437 1C13.6566 2.0539 12.6612 2.78578 11.5 2.78578C10.3388 2.78578 9.3434 2.0539 8.95632 1C7.86338 1.26348 6.829 1.68959 5.87268 2.27184C6.34433 3.29322 6.15892 4.51301 5.33597 5.33597C4.51301 6.15892 3.29322 6.34433 2.27184 5.87268C1.68634 6.829 1.26022 7.86013 1 8.95632C2.0539 9.3434 2.78578 10.3388 2.78578 11.5C2.78578 12.6612 2.0539 13.6566 1 14.0437C1.26348 15.1366 1.68959 16.171 2.27509 17.1273C3.29647 16.6557 4.51626 16.8411 5.33922 17.664C6.16217 18.487 6.34758 19.7068 5.87593 20.7282C6.83225 21.3137 7.86338 21.7398 8.95957 22C9.34665 20.9461 10.342 20.2142 11.5033 20.2142C12.6645 20.2142 13.6599 20.9461 14.0469 22C14.8439 21.8081 15.6115 21.5283 16.3434 21.164L18.1324 20.1101L18.1292 20.1069Z" stroke="#09081D" stroke-width="2" stroke-miterlimit="10" stroke-linejoin="round"/>
<path id="Vector_2" d="M11.5 15C13.433 15 15 13.433 15 11.5C15 9.567 13.433 8 11.5 8C9.567 8 8 9.567 8 11.5C8 13.433 9.567 15 11.5 15Z" stroke="#09081D" stroke-width="2" stroke-miterlimit="10" stroke-linejoin="round"/>
</g>
</svg>
