<svg width="24" height="24" viewBox="0 0 24 24" fill="none" xmlns="http://www.w3.org/2000/svg">
<g id="Frame" clip-path="url(#clip0_1159_11966)">
<rect id="Rectangle 2351" x="2" y="10" width="18" height="12" rx="1.8" fill="#FFBA59"/>
<rect id="Rectangle 2353" x="16.9619" y="11.1268" width="5.6295" height="11.9913" fill="white"/>
<path id="Ellipse 396" d="M23.6247 8.16615L22.9795 8.08726L23.6247 8.16615C23.6684 7.80932 23.5944 7.48045 23.5029 7.21732L22.889 7.43086L23.5029 7.21732L22.081 3.12942C21.7105 2.06404 20.7061 1.35 19.5781 1.35H4.42188C3.29389 1.35 2.28953 2.06404 1.91896 3.12942L0.497084 7.21732C0.405562 7.48044 0.331645 7.80932 0.37528 8.16615C0.580931 9.84789 2.01291 11.15 3.75 11.15C4.88031 11.15 5.8818 10.5984 6.5 9.74978C7.1182 10.5984 8.11969 11.15 9.25 11.15C10.3803 11.15 11.3818 10.5984 12 9.74978C12.6182 10.5984 13.6197 11.15 14.75 11.15C15.8803 11.15 16.8818 10.5984 17.5 9.74978C18.1182 10.5984 19.1197 11.15 20.25 11.15C21.9871 11.15 23.4191 9.84789 23.6247 8.16615Z" fill="#FFBA59" stroke="white" stroke-width="1.3"/>
<g id="Union">
<mask id="path-4-outside-1_1159_11966" maskUnits="userSpaceOnUse" x="10" y="10.5" width="15" height="13" fill="black">
<rect fill="white" x="10" y="10.5" width="15" height="13"/>
<path fill-rule="evenodd" clip-rule="evenodd" d="M14.6401 20.9192C14.7702 21.1501 14.9666 21.3176 15.1904 21.4112C15.6152 21.5945 16.1103 21.4887 16.4758 21.1423C17.0567 20.5873 17.5288 19.7306 17.8871 18.7596L19.0517 20.8241C19.1086 20.9724 19.1986 21.1069 19.3227 21.2164C19.5729 21.4372 19.8764 21.525 20.1745 21.494C20.3355 21.4805 20.496 21.4312 20.6446 21.3434C20.6658 21.331 20.6864 21.318 20.7064 21.3044C20.7787 21.2582 20.8479 21.2041 20.9131 21.1423C22.4932 19.6328 23.2677 15.8905 23.1404 13.6897C23.1025 13.0266 22.5758 12.4728 21.9734 12.501C21.3331 12.5292 20.8821 12.9913 20.9338 13.7143C21.017 14.9052 20.7641 16.7394 20.1508 18.1568L18.6415 15.4776C18.7125 14.828 18.7335 14.2149 18.7031 13.6897C18.6652 13.0266 18.1385 12.4728 17.5361 12.501C16.8958 12.5292 16.4448 12.9913 16.4965 13.7143C16.5801 14.9115 16.3241 16.7588 15.7037 18.1792L14.1069 15.3455C13.7954 14.7926 13.1041 14.6028 12.5645 14.922C12.0249 15.2412 11.8397 15.9495 12.1513 16.5023L14.6401 20.9192Z"/>
</mask>
<path fill-rule="evenodd" clip-rule="evenodd" d="M14.6401 20.9192C14.7702 21.1501 14.9666 21.3176 15.1904 21.4112C15.6152 21.5945 16.1103 21.4887 16.4758 21.1423C17.0567 20.5873 17.5288 19.7306 17.8871 18.7596L19.0517 20.8241C19.1086 20.9724 19.1986 21.1069 19.3227 21.2164C19.5729 21.4372 19.8764 21.525 20.1745 21.494C20.3355 21.4805 20.496 21.4312 20.6446 21.3434C20.6658 21.331 20.6864 21.318 20.7064 21.3044C20.7787 21.2582 20.8479 21.2041 20.9131 21.1423C22.4932 19.6328 23.2677 15.8905 23.1404 13.6897C23.1025 13.0266 22.5758 12.4728 21.9734 12.501C21.3331 12.5292 20.8821 12.9913 20.9338 13.7143C21.017 14.9052 20.7641 16.7394 20.1508 18.1568L18.6415 15.4776C18.7125 14.828 18.7335 14.2149 18.7031 13.6897C18.6652 13.0266 18.1385 12.4728 17.5361 12.501C16.8958 12.5292 16.4448 12.9913 16.4965 13.7143C16.5801 14.9115 16.3241 16.7588 15.7037 18.1792L14.1069 15.3455C13.7954 14.7926 13.1041 14.6028 12.5645 14.922C12.0249 15.2412 11.8397 15.9495 12.1513 16.5023L14.6401 20.9192Z" fill="#FFBA59"/>
<path d="M15.1904 21.4112L15.7055 20.2176L15.6987 20.2147L15.692 20.2119L15.1904 21.4112ZM14.6401 20.9192L15.7727 20.281L15.7727 20.281L14.6401 20.9192ZM16.4758 21.1423L17.37 22.086L17.3738 22.0823L16.4758 21.1423ZM17.8871 18.7596L19.0194 18.1209L17.6398 15.6751L16.6675 18.3095L17.8871 18.7596ZM19.0517 20.8241L20.2655 20.3587L20.2311 20.269L20.184 20.1854L19.0517 20.8241ZM19.3227 21.2164L18.4625 22.1911L18.4625 22.1911L19.3227 21.2164ZM20.1745 21.494L20.0659 20.1985L20.0529 20.1996L20.04 20.2009L20.1745 21.494ZM20.6446 21.3434L19.9862 20.2224L19.9831 20.2243L20.6446 21.3434ZM20.7064 21.3044L20.0063 20.209L19.9915 20.2184L19.977 20.2283L20.7064 21.3044ZM20.9131 21.1423L21.8073 22.086L21.8111 22.0823L20.9131 21.1423ZM23.1404 13.6897L21.8425 13.7638L21.8425 13.7648L23.1404 13.6897ZM21.9734 12.501L22.0306 13.7998L22.0342 13.7996L21.9734 12.501ZM20.9338 13.7143L22.2306 13.6237L22.2305 13.6217L20.9338 13.7143ZM20.1508 18.1568L19.0181 18.7949L20.3037 21.0769L21.3438 18.6731L20.1508 18.1568ZM18.6415 15.4776L17.3492 15.3363L17.3037 15.7516L17.5088 16.1157L18.6415 15.4776ZM18.7031 13.6897L17.4052 13.7638L17.4052 13.7648L18.7031 13.6897ZM17.5361 12.501L17.5933 13.7998L17.5969 13.7996L17.5361 12.501ZM16.4965 13.7143L17.7933 13.6237L17.7932 13.6217L16.4965 13.7143ZM15.7037 18.1792L14.5712 18.8174L15.8513 21.0892L16.8951 18.6995L15.7037 18.1792ZM14.1069 15.3455L15.2395 14.7073L14.1069 15.3455ZM12.5645 14.922L13.2264 16.0409L12.5645 14.922ZM12.1513 16.5023L11.0187 17.1405H11.0187L12.1513 16.5023ZM15.692 20.2119C15.7295 20.2276 15.7578 20.2546 15.7727 20.281L13.5076 21.5574C13.7826 22.0455 14.2037 22.4077 14.6889 22.6106L15.692 20.2119ZM15.5817 20.1987C15.5635 20.2159 15.5621 20.2086 15.5876 20.2033C15.6155 20.1974 15.66 20.198 15.7055 20.2176L14.6754 22.6049C15.6369 23.0197 16.6761 22.7434 17.37 22.086L15.5817 20.1987ZM16.6675 18.3095C16.3403 19.196 15.954 19.8429 15.5778 20.2024L17.3738 22.0823C18.1594 21.3318 18.7172 20.2651 19.1067 19.2097L16.6675 18.3095ZM20.184 20.1854L19.0194 18.1209L16.7548 19.3983L17.9194 21.4628L20.184 20.1854ZM20.1829 20.2417C20.224 20.278 20.2512 20.3214 20.2655 20.3587L17.8379 21.2895C17.9659 21.6234 18.1731 21.9357 18.4625 22.1911L20.1829 20.2417ZM20.04 20.2009C20.0627 20.1986 20.0918 20.2004 20.1226 20.2101C20.1542 20.2201 20.1746 20.2344 20.1829 20.2417L18.4625 22.1911C18.9901 22.6567 19.6559 22.8549 20.309 22.787L20.04 20.2009ZM19.9831 20.2243C20.0061 20.2107 20.0351 20.2011 20.0659 20.1985L20.2832 22.7894C20.6359 22.7598 20.9859 22.6518 21.3061 22.4625L19.9831 20.2243ZM19.977 20.2283C19.9801 20.2262 19.9832 20.2242 19.9862 20.2224L21.303 22.4643C21.3483 22.4377 21.3926 22.4097 21.4358 22.3804L19.977 20.2283ZM20.0189 20.1987C20.0125 20.2048 20.0081 20.2078 20.0063 20.209L21.4064 22.3998C21.5492 22.3085 21.6834 22.2034 21.8073 22.086L20.0189 20.1987ZM21.8425 13.7648C21.8969 14.7039 21.757 16.0495 21.4114 17.3385C21.0556 18.6653 20.5443 19.6968 20.0151 20.2024L21.8111 22.0823C22.862 21.0783 23.528 19.4838 23.9227 18.0119C24.3275 16.5022 24.5112 14.8763 24.4382 13.6145L21.8425 13.7648ZM22.0342 13.7996C21.9046 13.8057 21.8401 13.746 21.8364 13.7422C21.8338 13.7396 21.8417 13.7499 21.8425 13.7638L24.4383 13.6155C24.3692 12.407 23.3825 11.1336 21.9126 11.2025L22.0342 13.7996ZM22.2305 13.6217C22.2278 13.5852 22.2337 13.584 22.2262 13.6081C22.2184 13.6336 22.2 13.6722 22.1653 13.7112C22.1309 13.7499 22.093 13.7748 22.0625 13.7883C22.0332 13.8014 22.0198 13.8002 22.0306 13.7998L21.9161 11.2023C21.2931 11.2297 20.6727 11.4774 20.2229 11.983C19.77 12.492 19.5901 13.1494 19.6371 13.8069L22.2305 13.6217ZM21.3438 18.6731C22.0439 17.0553 22.3276 15.012 22.2306 13.6237L19.6369 13.8049C19.7063 14.7985 19.4843 16.4235 18.9577 17.6405L21.3438 18.6731ZM17.5088 16.1157L19.0181 18.7949L21.2834 17.5187L19.7741 14.8396L17.5088 16.1157ZM17.4052 13.7648C17.4306 14.2034 17.4141 14.7425 17.3492 15.3363L19.9337 15.619C20.0109 14.9136 20.0363 14.2265 20.0009 13.6145L17.4052 13.7648ZM17.5969 13.7996C17.4673 13.8057 17.4028 13.746 17.3991 13.7422C17.3966 13.7396 17.4044 13.7499 17.4052 13.7638L20.001 13.6155C19.9319 12.407 18.9452 11.1336 17.4753 11.2025L17.5969 13.7996ZM17.7932 13.6217C17.7906 13.5852 17.7964 13.584 17.7889 13.6081C17.7811 13.6336 17.7627 13.6722 17.728 13.7112C17.6936 13.7499 17.6557 13.7748 17.6252 13.7883C17.5959 13.8014 17.5825 13.8002 17.5933 13.7998L17.4789 11.2023C16.8558 11.2297 16.2355 11.4774 15.7856 11.983C15.3327 12.492 15.1528 13.1494 15.1998 13.8069L17.7932 13.6217ZM16.8951 18.6995C17.6039 17.0767 17.8908 15.0186 17.7933 13.6237L15.1996 13.8049C15.2695 14.8044 15.0444 16.4409 14.5124 17.6588L16.8951 18.6995ZM12.9744 15.9837L14.5712 18.8174L16.8363 17.541L15.2395 14.7073L12.9744 15.9837ZM13.2264 16.0409C13.1257 16.1005 13.013 16.0522 12.9744 15.9837L15.2395 14.7073C14.5778 13.533 13.0826 13.1051 11.9027 13.8031L13.2264 16.0409ZM13.2838 15.8641C13.3014 15.8953 13.3029 15.9286 13.2964 15.9535C13.2899 15.9785 13.2693 16.0156 13.2264 16.0409L11.9027 13.8031C10.7419 14.4898 10.367 15.984 11.0187 17.1405L13.2838 15.8641ZM15.7727 20.281L13.2838 15.8641L11.0187 17.1405L13.5076 21.5574L15.7727 20.281Z" fill="white" mask="url(#path-4-outside-1_1159_11966)"/>
</g>
<rect id="Rectangle 2352" x="5" y="14" width="3.5" height="3.5" rx="0.8" fill="white"/>
</g>
<defs>
<clipPath id="clip0_1159_11966">
<rect width="24" height="24" fill="white"/>
</clipPath>
</defs>
</svg>
