<svg width="24" height="24" viewBox="0 0 24 24" fill="none" xmlns="http://www.w3.org/2000/svg">
<g id="conversation (1) 2" clip-path="url(#clip0_1952_20591)">
<path id="Vector" fill-rule="evenodd" clip-rule="evenodd" d="M0.0391045 22.8512L1.66815 17.4794C0.753637 15.7684 0.27199 13.8457 0.27199 11.8934C0.27199 5.3548 5.59151 0.0352249 12.13 0.0352249C16.0895 0.0352249 19.6012 1.98623 21.756 4.97693C22.0528 5.40652 22.714 6.43717 22.9851 7.12308C23.6295 8.58346 23.9882 10.1973 23.9882 11.8934C23.9882 15.9868 21.9033 19.6023 18.7396 21.734C18.1729 22.1158 17.4424 22.5354 16.5633 22.891C15.1932 23.4454 13.6967 23.7515 12.13 23.7515C10.1776 23.7515 8.25495 23.2698 6.54399 22.3553L1.17223 23.9844C1.08547 24.0106 0.996647 24.0235 0.90851 24.0235C0.671253 24.0235 0.43906 23.9303 0.266237 23.7572C0.029211 23.5204 -0.0582371 23.172 0.0391045 22.8512ZM7.10434 20.5879C6.88664 20.4618 6.62637 20.4317 6.3852 20.5046L2.27106 21.7524L3.5188 17.6382C3.59174 17.3973 3.5616 17.1368 3.43549 16.9191C2.55458 15.3986 2.08904 13.6607 2.08904 11.8934C2.08904 6.35677 6.59347 1.85229 12.13 1.85229C17.6665 1.85229 22.171 6.35654 22.171 11.8934C22.171 17.4299 17.6665 21.9344 12.13 21.9344C10.3627 21.9344 8.62476 21.4689 7.10434 20.5879Z" fill="black"/>
<path id="icon" fill-rule="evenodd" clip-rule="evenodd" d="M10.1466 10.9008L10.6718 12.4107H9.61154H9.60176L10.1466 10.9008ZM6.43441 12.6889C6.38865 13.7364 6.36469 14.2847 6.97065 14.2847C7.57382 14.2847 7.54956 13.7302 7.50374 12.6831C7.47941 12.1271 7.449 11.4321 7.50323 10.6076C7.59959 10.5911 7.73341 10.5981 7.8798 10.6058C8.3161 10.6286 8.86398 10.6574 8.86398 10.0848C8.86398 9.49815 8.28258 9.52325 7.31815 9.56488C6.83252 9.58585 6.24977 9.611 5.59524 9.56436C5.52585 9.56468 5.45721 9.57874 5.39328 9.60574C5.32936 9.63274 5.27142 9.67215 5.22281 9.72167C5.17419 9.77119 5.13588 9.82986 5.11007 9.89428C5.08426 9.9587 5.07147 10.0276 5.07244 10.097C5.07244 10.669 5.66801 10.6396 6.0997 10.6184C6.23597 10.6117 6.35592 10.6058 6.43563 10.6198C6.48882 11.4438 6.45858 12.1359 6.43441 12.6889ZM11.068 13.6516C11.2 14.045 11.3537 14.5029 12.0057 14.2065C12.4109 14.0189 12.1353 13.361 11.68 12.2742C11.4299 11.6773 11.1256 10.9508 10.8501 10.1019C10.8012 9.95118 10.7059 9.81985 10.5777 9.72671C10.4496 9.63356 10.2952 9.58339 10.1368 9.58339C9.97836 9.58339 9.82401 9.63356 9.69586 9.72671C9.56771 9.81985 9.47234 9.95118 9.42343 10.1019C9.15355 10.9402 8.85069 11.6645 8.60047 12.2629C8.14626 13.3492 7.86549 14.0206 8.27033 14.2065C8.92206 14.4971 9.07439 14.0429 9.20575 13.6513C9.24229 13.5423 9.27722 13.4382 9.32082 13.3563H10.9527C10.9963 13.4381 11.0313 13.5423 11.068 13.6516ZM12.4719 12.5765C12.4279 13.7019 12.4082 14.2065 12.9829 14.2065H12.9927C13.2932 14.1768 13.6109 14.1862 13.9092 14.195C14.6172 14.2159 15.2158 14.2336 15.2158 13.7179C15.2158 13.177 14.5984 13.2056 14.0668 13.2302C13.878 13.2389 13.7 13.2472 13.5643 13.2292V10.1043C13.5643 9.40311 12.4698 9.40067 12.4698 10.1043C12.5283 11.1335 12.4964 11.9509 12.4719 12.5765ZM16.6914 12.3985L17.9373 14.0526H17.9471C18.3721 14.6146 19.2296 13.9744 18.7972 13.41L17.4804 11.6753L18.7019 10.4537C18.9902 10.1703 18.7264 9.63522 18.2964 9.63522C18.1003 9.63522 18.0416 9.69578 17.6507 10.0991C17.4184 10.3387 17.0688 10.6994 16.5032 11.2404C16.4833 11.0993 16.4929 10.9161 16.503 10.7227C16.5312 10.1829 16.5636 9.56436 15.9682 9.56436C15.8976 9.56436 15.8276 9.57836 15.7624 9.60556C15.6971 9.63275 15.6379 9.6726 15.5882 9.72281C15.5384 9.77301 15.4991 9.83257 15.4725 9.89806C15.4459 9.96354 15.4326 10.0336 15.4332 10.1043C15.4899 11.1001 15.4578 11.9113 15.4329 12.5447C15.3867 13.714 15.3645 14.2774 15.9682 14.2774C16.0385 14.2777 16.1081 14.2642 16.1732 14.2376C16.2382 14.211 16.2974 14.1719 16.3473 14.1224C16.3972 14.0729 16.4368 14.0141 16.464 13.9493C16.4912 13.8845 16.5054 13.815 16.5057 13.7448V12.5842L16.6914 12.3985Z" fill="black"/>
</g>
<defs>
<clipPath id="clip0_1952_20591">
<rect width="24" height="24" fill="white" transform="matrix(-1 0 0 1 24 0)"/>
</clipPath>
</defs>
</svg>
