<svg width="24" height="24" viewBox="0 0 24 24" fill="none" xmlns="http://www.w3.org/2000/svg">
<g id="ic/tab/community/line" clip-path="url(#clip0_1684_49459)">
<path id="Vector" d="M11.4481 5.70491C12.7238 5.70491 13.758 4.65168 13.758 3.35246C13.758 2.05323 12.7238 1 11.4481 1C10.1724 1 9.13818 2.05323 9.13818 3.35246C9.13818 4.65168 10.1724 5.70491 11.4481 5.70491Z" fill="#6053F3" stroke="#6053F3" stroke-width="2" stroke-miterlimit="10" stroke-linejoin="round"/>
<path id="Vector_2" d="M20.9275 11.3821C20.9275 11.3821 20.0361 5.27942 13.8042 3.65515" stroke="#6053F3" stroke-width="2" stroke-miterlimit="10" stroke-linecap="round" stroke-linejoin="round"/>
<path id="Vector_3" d="M19.7293 20.4366C21.0051 20.4366 22.0392 19.3834 22.0392 18.0841C22.0392 16.7849 21.0051 15.7317 19.7293 15.7317C18.4536 15.7317 17.4194 16.7849 17.4194 18.0841C17.4194 19.3834 18.4536 20.4366 19.7293 20.4366Z" fill="#6053F3" stroke="#6053F3" stroke-width="2" stroke-miterlimit="10" stroke-linejoin="round"/>
<path id="Vector_4" d="M8.17432 22.4609C8.17432 22.4609 13.8139 24.7119 18.3015 20.0148" stroke="#6053F3" stroke-width="2" stroke-miterlimit="10" stroke-linecap="round" stroke-linejoin="round"/>
<path id="Vector_5" d="M3.27084 20.335C4.54657 20.335 5.58074 19.2818 5.58074 17.9826C5.58074 16.6834 4.54657 15.6301 3.27084 15.6301C1.99512 15.6301 0.960938 16.6834 0.960938 17.9826C0.960938 19.2818 1.99512 20.335 3.27084 20.335Z" fill="#6053F3" stroke="#6053F3" stroke-width="2" stroke-miterlimit="10" stroke-linejoin="round"/>
<path id="Vector_6" d="M5.22033 5.58374C5.22033 5.58374 0.520016 9.47652 2.32385 15.7647" stroke="#6053F3" stroke-width="2" stroke-miterlimit="10" stroke-linecap="round" stroke-linejoin="round"/>
</g>
<defs>
<clipPath id="clip0_1684_49459">
<rect width="24" height="24" fill="white"/>
</clipPath>
</defs>
</svg>
