<svg width="24" height="24" viewBox="0 0 24 24" fill="none" xmlns="http://www.w3.org/2000/svg">
<g id="ic/tab/community/line" clip-path="url(#clip0_1684_13973)">
<path id="Vector" d="M11.4486 5.70491C12.7243 5.70491 13.7585 4.65168 13.7585 3.35246C13.7585 2.05323 12.7243 1 11.4486 1C10.1729 1 9.13867 2.05323 9.13867 3.35246C9.13867 4.65168 10.1729 5.70491 11.4486 5.70491Z" stroke="#BDC1C7" stroke-width="2" stroke-miterlimit="10" stroke-linejoin="round"/>
<path id="Vector_2" d="M20.928 11.3823C20.928 11.3823 20.0366 5.27954 13.8047 3.65527" stroke="#BDC1C7" stroke-width="2" stroke-miterlimit="10" stroke-linecap="round" stroke-linejoin="round"/>
<path id="Vector_3" d="M19.7298 20.4368C21.0056 20.4368 22.0397 19.3836 22.0397 18.0844C22.0397 16.7852 21.0056 15.7319 19.7298 15.7319C18.4541 15.7319 17.4199 16.7852 17.4199 18.0844C17.4199 19.3836 18.4541 20.4368 19.7298 20.4368Z" stroke="#BDC1C7" stroke-width="2" stroke-miterlimit="10" stroke-linejoin="round"/>
<path id="Vector_4" d="M8.17383 22.4608C8.17383 22.4608 13.8134 24.7117 18.301 20.0146" stroke="#BDC1C7" stroke-width="2" stroke-miterlimit="10" stroke-linecap="round" stroke-linejoin="round"/>
<path id="Vector_5" d="M3.27084 20.3348C4.54657 20.3348 5.58074 19.2816 5.58074 17.9823C5.58074 16.6831 4.54657 15.6299 3.27084 15.6299C1.99512 15.6299 0.960938 16.6831 0.960938 17.9823C0.960938 19.2816 1.99512 20.3348 3.27084 20.3348Z" stroke="#BDC1C7" stroke-width="2" stroke-miterlimit="10" stroke-linejoin="round"/>
<path id="Vector_6" d="M5.22082 5.58398C5.22082 5.58398 0.520505 9.47676 2.32434 15.7649" stroke="#BDC1C7" stroke-width="2" stroke-miterlimit="10" stroke-linecap="round" stroke-linejoin="round"/>
</g>
<defs>
<clipPath id="clip0_1684_13973">
<rect width="24" height="24" fill="white"/>
</clipPath>
</defs>
</svg>
