<svg width="24" height="24" viewBox="0 0 24 24" fill="none" xmlns="http://www.w3.org/2000/svg">
<g id="ic/tab/home/fill">
<path id="Subtract" d="M2.86256 7.31801L3.43128 8.14054L3.43128 8.14054L2.86256 7.31801ZM10.8626 1.78658L10.2938 0.964049V0.96405L10.8626 1.78658ZM13.1374 1.78658L13.7062 0.964049V0.964049L13.1374 1.78658ZM21.1374 7.31801L21.7062 6.49548V6.49548L21.1374 7.31801ZM15 23.0001H14V24.0001H15V23.0001ZM9 23.0001V24.0001H10V23.0001H9ZM1 8.96307V21.0001H3V8.96307H1ZM2.29384 6.49548C1.48359 7.05571 1 7.978 1 8.96307H3C3 8.63471 3.1612 8.32728 3.43128 8.14054L2.29384 6.49548ZM10.2938 0.96405L2.29384 6.49548L3.43128 8.14054L11.4313 2.60911L10.2938 0.96405ZM13.7062 0.964049C12.6795 0.25417 11.3205 0.254172 10.2938 0.964049L11.4313 2.60911C11.7735 2.37248 12.2265 2.37248 12.5687 2.60911L13.7062 0.964049ZM21.7062 6.49548L13.7062 0.964049L12.5687 2.60911L20.5687 8.14054L21.7062 6.49548ZM23 8.96307C23 7.978 22.5164 7.0557 21.7062 6.49548L20.5687 8.14054C20.8388 8.32728 21 8.63471 21 8.96307H23ZM23 21.0001V8.96307H21V21.0001H23ZM20 24.0001C21.6569 24.0001 23 22.657 23 21.0001H21C21 21.5524 20.5523 22.0001 20 22.0001V24.0001ZM15 24.0001H20V22.0001H15V24.0001ZM14 17V23.0001H16V17H14ZM14 17H16C16 15.8954 15.1046 15 14 15V17ZM10 17H14V15H10V17ZM10 17V15C8.89543 15 8 15.8954 8 17H10ZM10 23.0001V17H8V23.0001H10ZM4 24.0001H9V22.0001H4V24.0001ZM1 21.0001C1 22.657 2.34315 24.0001 4 24.0001V22.0001C3.44772 22.0001 3 21.5524 3 21.0001H1Z" fill="#BDC1C7"/>
</g>
</svg>
