<svg width="24" height="24" viewBox="0 0 24 24" fill="none" xmlns="http://www.w3.org/2000/svg">
<g id="ic/tab/report/line">
<path id="Rectangle 1565" d="M23 23H1" stroke="#6053F3" stroke-width="2" stroke-linecap="round"/>
<path id="Vector" d="M6.5 2C6.5 1.72386 6.27614 1.5 6 1.5H3C2.72386 1.5 2.5 1.72386 2.5 2V18C2.5 18.2761 2.72386 18.5 3 18.5H6C6.27614 18.5 6.5 18.2761 6.5 18V2Z" fill="#6053F3" stroke="#6053F3" stroke-linecap="round" stroke-linejoin="round"/>
<path id="Vector_2" d="M14.5 9C14.5 8.72386 14.2761 8.5 14 8.5H11C10.7239 8.5 10.5 8.72386 10.5 9V18C10.5 18.2761 10.7239 18.5 11 18.5H14C14.2761 18.5 14.5 18.2761 14.5 18V9Z" fill="#6053F3" stroke="#6053F3" stroke-linecap="round" stroke-linejoin="round"/>
<path id="Vector_3" d="M22.5 13C22.5 12.7239 22.2761 12.5 22 12.5H19C18.7239 12.5 18.5 12.7239 18.5 13V18C18.5 18.2761 18.7239 18.5 19 18.5H22C22.2761 18.5 22.5 18.2761 22.5 18V13Z" fill="#6053F3" stroke="#6053F3" stroke-linecap="round" stroke-linejoin="round"/>
</g>
</svg>
